<svg width="329" height="519" viewBox="0 0 329 519" fill="none" xmlns="http://www.w3.org/2000/svg">
<path d="M69.4242 64.5569C63.4194 64.5569 58.5065 59.6439 58.5065 53.6392C58.5065 47.6344 63.4194 42.7214 69.4242 42.7214C75.4289 42.7214 80.3419 47.6344 80.3419 53.6392C80.3419 59.6439 75.4289 64.5569 69.4242 64.5569ZM69.4242 47.9074C66.1489 47.9074 63.6924 50.6368 63.6924 53.6392C63.6924 56.9145 66.4218 59.371 69.4242 59.371C72.6995 59.371 75.156 56.6415 75.156 53.6392C75.156 50.3638 72.6995 47.9074 69.4242 47.9074Z" fill="#F9F2E8" fill-opacity="0.75"/>
<path d="M14.3608 110.127C8.35609 110.127 3.44312 105.214 3.44312 99.2088C3.44312 93.2041 8.35609 88.2911 14.3608 88.2911C20.3656 88.2911 25.2786 93.2041 25.2786 99.2088C25.2786 105.214 20.3656 110.127 14.3608 110.127ZM14.3608 93.477C11.0855 93.477 8.62904 96.2064 8.62904 99.2088C8.62904 102.484 11.3585 104.941 14.3608 104.941C17.6362 104.941 20.0926 102.211 20.0926 99.2088C20.0926 95.9335 17.6362 93.477 14.3608 93.477Z" fill="#F9F2E8" fill-opacity="0.75"/>
<path d="M83.19 139.283C83.19 138.188 82.1208 137.092 80.517 136.818L75.4383 135.997C74.1019 135.997 72.7654 134.628 72.4981 133.258L71.6962 128.055C71.4289 126.686 70.3597 125.316 69.2905 125.316C68.2213 125.316 67.1521 126.412 66.8848 128.055L66.3502 133.258C66.0829 134.628 64.7464 136.271 63.41 136.271L58.3313 137.092C56.9948 137.366 55.6583 138.462 55.6583 139.557C55.6583 140.652 56.7275 141.748 58.3313 142.022L63.41 142.843C64.7464 143.117 66.3502 144.486 66.3502 145.856L67.1521 151.059C67.4194 152.428 68.4886 153.797 69.5578 153.797C70.627 153.797 71.6962 152.702 71.6962 151.059L72.4981 145.308C72.7654 143.939 74.1019 142.569 75.4383 142.296L80.2497 142.022C82.1208 141.474 83.19 140.379 83.19 139.283Z" fill="#F9F2E8" fill-opacity="0.75"/>
<path d="M28.1267 13.9667C28.1267 12.8712 27.0575 11.7758 25.4538 11.5019L20.3751 10.6804C19.0386 10.6804 17.7021 9.3111 17.4348 7.94182L16.6329 2.73856C16.3656 1.36928 15.2964 0 14.2273 0C13.1581 0 12.0889 1.09542 11.8216 2.73856L11.287 7.94182C11.0197 9.3111 9.68321 10.9542 8.34672 10.9542L3.26807 11.7758C1.93158 12.0497 0.595093 13.1451 0.595093 14.2405C0.595093 15.3359 1.66428 16.4314 3.26807 16.7052L8.34672 17.5268C9.68321 17.8006 11.287 19.1699 11.287 20.5392L12.0889 25.7425C12.3562 27.1117 13.4254 28.481 14.4946 28.481C15.5638 28.481 16.6329 27.3856 16.6329 25.7425L17.4348 19.9915C17.7021 18.6222 19.0386 17.2529 20.3751 16.9791L25.1865 16.7052C27.0576 16.1575 28.1267 15.0621 28.1267 13.9667Z" fill="#F9F2E8" fill-opacity="0.75"/>
<path d="M192.019 64.5569C186.014 64.5569 181.101 59.6439 181.101 53.6392C181.101 47.6344 186.014 42.7214 192.019 42.7214C198.024 42.7214 202.937 47.6344 202.937 53.6392C202.937 59.6439 198.024 64.5569 192.019 64.5569ZM192.019 47.9074C188.744 47.9074 186.287 50.6368 186.287 53.6392C186.287 56.9145 189.017 59.371 192.019 59.371C195.294 59.371 197.751 56.6415 197.751 53.6392C197.751 50.3638 195.294 47.9074 192.019 47.9074Z" fill="#F9F2E8" fill-opacity="0.75"/>
<path d="M136.956 110.127C130.951 110.127 126.038 105.214 126.038 99.2088C126.038 93.2041 130.951 88.2911 136.956 88.2911C142.961 88.2911 147.874 93.2041 147.874 99.2088C147.874 105.214 142.961 110.127 136.956 110.127ZM136.956 93.477C133.681 93.477 131.224 96.2064 131.224 99.2088C131.224 102.484 133.954 104.941 136.956 104.941C140.231 104.941 142.688 102.211 142.688 99.2088C142.688 95.9335 140.231 93.477 136.956 93.477Z" fill="#F9F2E8" fill-opacity="0.75"/>
<path d="M205.785 139.283C205.785 138.188 204.716 137.092 203.112 136.818L198.033 135.997C196.697 135.997 195.36 134.628 195.093 133.258L194.291 128.055C194.024 126.686 192.955 125.316 191.886 125.316C190.816 125.316 189.747 126.412 189.48 128.055L188.945 133.258C188.678 134.628 187.342 136.271 186.005 136.271L180.926 137.092C179.59 137.366 178.253 138.462 178.253 139.557C178.253 140.652 179.323 141.748 180.926 142.022L186.005 142.843C187.342 143.117 188.945 144.486 188.945 145.856L189.747 151.059C190.015 152.428 191.084 153.797 192.153 153.797C193.222 153.797 194.291 152.702 194.291 151.059L195.093 145.308C195.36 143.939 196.697 142.569 198.033 142.296L202.845 142.022C204.716 141.474 205.785 140.379 205.785 139.283Z" fill="#F9F2E8" fill-opacity="0.75"/>
<path d="M150.722 13.9667C150.722 12.8712 149.653 11.7758 148.049 11.5019L142.97 10.6804C141.634 10.6804 140.297 9.3111 140.03 7.94182L139.228 2.73856C138.961 1.36928 137.891 0 136.822 0C135.753 0 134.684 1.09542 134.417 2.73856L133.882 7.94182C133.615 9.3111 132.278 10.9542 130.942 10.9542L125.863 11.7758C124.527 12.0497 123.19 13.1451 123.19 14.2405C123.19 15.3359 124.259 16.4314 125.863 16.7052L130.942 17.5268C132.278 17.8006 133.882 19.1699 133.882 20.5392L134.684 25.7425C134.951 27.1117 136.02 28.481 137.09 28.481C138.159 28.481 139.228 27.3856 139.228 25.7425L140.03 19.9915C140.297 18.6222 141.634 17.2529 142.97 16.9791L147.781 16.7052C149.653 16.1575 150.722 15.0621 150.722 13.9667Z" fill="#F9F2E8" fill-opacity="0.75"/>
<path d="M314.614 64.5569C308.609 64.5569 303.696 59.6439 303.696 53.6392C303.696 47.6344 308.609 42.7214 314.614 42.7214C320.619 42.7214 325.532 47.6344 325.532 53.6392C325.532 59.6439 320.619 64.5569 314.614 64.5569ZM314.614 47.9074C311.339 47.9074 308.882 50.6368 308.882 53.6392C308.882 56.9145 311.612 59.371 314.614 59.371C317.889 59.371 320.346 56.6415 320.346 53.6392C320.346 50.3638 317.889 47.9074 314.614 47.9074Z" fill="#F9F2E8" fill-opacity="0.75"/>
<path d="M259.551 110.127C253.546 110.127 248.633 105.214 248.633 99.2088C248.633 93.2041 253.546 88.2911 259.551 88.2911C265.556 88.2911 270.469 93.2041 270.469 99.2088C270.469 105.214 265.556 110.127 259.551 110.127ZM259.551 93.477C256.275 93.477 253.819 96.2064 253.819 99.2088C253.819 102.484 256.548 104.941 259.551 104.941C262.826 104.941 265.283 102.211 265.283 99.2088C265.283 95.9335 262.826 93.477 259.551 93.477Z" fill="#F9F2E8" fill-opacity="0.75"/>
<path d="M328.38 139.283C328.38 138.188 327.311 137.092 325.707 136.818L320.628 135.997C319.292 135.997 317.955 134.628 317.688 133.258L316.886 128.055C316.619 126.686 315.55 125.316 314.48 125.316C313.411 125.316 312.342 126.412 312.075 128.055L311.54 133.258C311.273 134.628 309.936 136.271 308.6 136.271L303.521 137.092C302.185 137.366 300.848 138.462 300.848 139.557C300.848 140.652 301.917 141.748 303.521 142.022L308.6 142.843C309.936 143.117 311.54 144.486 311.54 145.856L312.342 151.059C312.609 152.428 313.679 153.797 314.748 153.797C315.817 153.797 316.886 152.702 316.886 151.059L317.688 145.308C317.955 143.939 319.292 142.569 320.628 142.296L325.44 142.022C327.311 141.474 328.38 140.379 328.38 139.283Z" fill="#F9F2E8" fill-opacity="0.75"/>
<path d="M273.317 13.9667C273.317 12.8712 272.247 11.7758 270.644 11.5019L265.565 10.6804C264.229 10.6804 262.892 9.3111 262.625 7.94182L261.823 2.73856C261.556 1.36928 260.486 0 259.417 0C258.348 0 257.279 1.09542 257.012 2.73856L256.477 7.94182C256.21 9.3111 254.873 10.9542 253.537 10.9542L248.458 11.7758C247.122 12.0497 245.785 13.1451 245.785 14.2405C245.785 15.3359 246.854 16.4314 248.458 16.7052L253.537 17.5268C254.873 17.8006 256.477 19.1699 256.477 20.5392L257.279 25.7425C257.546 27.1117 258.615 28.481 259.685 28.481C260.754 28.481 261.823 27.3856 261.823 25.7425L262.625 19.9915C262.892 18.6222 264.229 17.2529 265.565 16.9791L270.376 16.7052C272.247 16.1575 273.317 15.0621 273.317 13.9667Z" fill="#F9F2E8" fill-opacity="0.75"/>
<path d="M69.4242 246.557C63.4194 246.557 58.5065 241.644 58.5065 235.639C58.5065 229.634 63.4194 224.721 69.4242 224.721C75.4289 224.721 80.3419 229.634 80.3419 235.639C80.3419 241.644 75.4289 246.557 69.4242 246.557ZM69.4242 229.907C66.1489 229.907 63.6924 232.637 63.6924 235.639C63.6924 238.914 66.4218 241.371 69.4242 241.371C72.6995 241.371 75.156 238.642 75.156 235.639C75.156 232.364 72.6995 229.907 69.4242 229.907Z" fill="#F9F2E8" fill-opacity="0.75"/>
<path d="M14.3608 292.127C8.35609 292.127 3.44312 287.214 3.44312 281.209C3.44312 275.204 8.35609 270.291 14.3608 270.291C20.3656 270.291 25.2786 275.204 25.2786 281.209C25.2786 287.214 20.3656 292.127 14.3608 292.127ZM14.3608 275.477C11.0855 275.477 8.62904 278.206 8.62904 281.209C8.62904 284.484 11.3585 286.941 14.3608 286.941C17.6362 286.941 20.0926 284.211 20.0926 281.209C20.0926 277.933 17.6362 275.477 14.3608 275.477Z" fill="#F9F2E8" fill-opacity="0.75"/>
<path d="M83.19 321.283C83.19 320.188 82.1208 319.092 80.517 318.818L75.4383 317.997C74.1019 317.997 72.7654 316.628 72.4981 315.258L71.6962 310.055C71.4289 308.686 70.3597 307.316 69.2905 307.316C68.2213 307.316 67.1521 308.412 66.8848 310.055L66.3502 315.258C66.0829 316.628 64.7464 318.271 63.41 318.271L58.3313 319.092C56.9948 319.366 55.6583 320.462 55.6583 321.557C55.6583 322.652 56.7275 323.748 58.3313 324.022L63.41 324.843C64.7464 325.117 66.3502 326.486 66.3502 327.856L67.1521 333.059C67.4194 334.428 68.4886 335.797 69.5578 335.797C70.627 335.797 71.6962 334.702 71.6962 333.059L72.4981 327.308C72.7654 325.939 74.1019 324.569 75.4383 324.296L80.2497 324.022C82.1208 323.474 83.19 322.379 83.19 321.283Z" fill="#F9F2E8" fill-opacity="0.75"/>
<path d="M28.1267 195.967C28.1267 194.871 27.0575 193.776 25.4538 193.502L20.3751 192.68C19.0386 192.68 17.7021 191.311 17.4348 189.942L16.6329 184.739C16.3656 183.369 15.2964 182 14.2273 182C13.1581 182 12.0889 183.095 11.8216 184.739L11.287 189.942C11.0197 191.311 9.68321 192.954 8.34672 192.954L3.26807 193.776C1.93158 194.05 0.595093 195.145 0.595093 196.241C0.595093 197.336 1.66428 198.431 3.26807 198.705L8.34672 199.527C9.68321 199.801 11.287 201.17 11.287 202.539L12.0889 207.742C12.3562 209.112 13.4254 210.481 14.4946 210.481C15.5638 210.481 16.6329 209.386 16.6329 207.742L17.4348 201.991C17.7021 200.622 19.0386 199.253 20.3751 198.979L25.1865 198.705C27.0576 198.157 28.1267 197.062 28.1267 195.967Z" fill="#F9F2E8" fill-opacity="0.75"/>
<path d="M192.019 246.557C186.014 246.557 181.101 241.644 181.101 235.639C181.101 229.634 186.014 224.721 192.019 224.721C198.024 224.721 202.937 229.634 202.937 235.639C202.937 241.644 198.024 246.557 192.019 246.557ZM192.019 229.907C188.744 229.907 186.287 232.637 186.287 235.639C186.287 238.914 189.017 241.371 192.019 241.371C195.294 241.371 197.751 238.642 197.751 235.639C197.751 232.364 195.294 229.907 192.019 229.907Z" fill="#F9F2E8" fill-opacity="0.75"/>
<path d="M136.956 292.127C130.951 292.127 126.038 287.214 126.038 281.209C126.038 275.204 130.951 270.291 136.956 270.291C142.961 270.291 147.874 275.204 147.874 281.209C147.874 287.214 142.961 292.127 136.956 292.127ZM136.956 275.477C133.681 275.477 131.224 278.206 131.224 281.209C131.224 284.484 133.954 286.941 136.956 286.941C140.231 286.941 142.688 284.211 142.688 281.209C142.688 277.933 140.231 275.477 136.956 275.477Z" fill="#F9F2E8" fill-opacity="0.75"/>
<path d="M205.785 321.283C205.785 320.188 204.716 319.092 203.112 318.818L198.033 317.997C196.697 317.997 195.36 316.628 195.093 315.258L194.291 310.055C194.024 308.686 192.955 307.316 191.886 307.316C190.816 307.316 189.747 308.412 189.48 310.055L188.945 315.258C188.678 316.628 187.342 318.271 186.005 318.271L180.926 319.092C179.59 319.366 178.253 320.462 178.253 321.557C178.253 322.652 179.323 323.748 180.926 324.022L186.005 324.843C187.342 325.117 188.945 326.486 188.945 327.856L189.747 333.059C190.015 334.428 191.084 335.797 192.153 335.797C193.222 335.797 194.291 334.702 194.291 333.059L195.093 327.308C195.36 325.939 196.697 324.569 198.033 324.296L202.845 324.022C204.716 323.474 205.785 322.379 205.785 321.283Z" fill="#F9F2E8" fill-opacity="0.75"/>
<path d="M150.722 195.967C150.722 194.871 149.653 193.776 148.049 193.502L142.97 192.68C141.634 192.68 140.297 191.311 140.03 189.942L139.228 184.739C138.961 183.369 137.891 182 136.822 182C135.753 182 134.684 183.095 134.417 184.739L133.882 189.942C133.615 191.311 132.278 192.954 130.942 192.954L125.863 193.776C124.527 194.05 123.19 195.145 123.19 196.241C123.19 197.336 124.259 198.431 125.863 198.705L130.942 199.527C132.278 199.801 133.882 201.17 133.882 202.539L134.684 207.742C134.951 209.112 136.02 210.481 137.09 210.481C138.159 210.481 139.228 209.386 139.228 207.742L140.03 201.991C140.297 200.622 141.634 199.253 142.97 198.979L147.781 198.705C149.653 198.157 150.722 197.062 150.722 195.967Z" fill="#F9F2E8" fill-opacity="0.75"/>
<path d="M314.614 246.557C308.609 246.557 303.696 241.644 303.696 235.639C303.696 229.634 308.609 224.721 314.614 224.721C320.619 224.721 325.532 229.634 325.532 235.639C325.532 241.644 320.619 246.557 314.614 246.557ZM314.614 229.907C311.339 229.907 308.882 232.637 308.882 235.639C308.882 238.914 311.612 241.371 314.614 241.371C317.889 241.371 320.346 238.642 320.346 235.639C320.346 232.364 317.889 229.907 314.614 229.907Z" fill="#F9F2E8" fill-opacity="0.75"/>
<path d="M259.551 292.127C253.546 292.127 248.633 287.214 248.633 281.209C248.633 275.204 253.546 270.291 259.551 270.291C265.556 270.291 270.469 275.204 270.469 281.209C270.469 287.214 265.556 292.127 259.551 292.127ZM259.551 275.477C256.275 275.477 253.819 278.206 253.819 281.209C253.819 284.484 256.548 286.941 259.551 286.941C262.826 286.941 265.283 284.211 265.283 281.209C265.283 277.933 262.826 275.477 259.551 275.477Z" fill="#F9F2E8" fill-opacity="0.75"/>
<path d="M328.38 321.283C328.38 320.188 327.311 319.092 325.707 318.818L320.628 317.997C319.292 317.997 317.955 316.628 317.688 315.258L316.886 310.055C316.619 308.686 315.55 307.316 314.48 307.316C313.411 307.316 312.342 308.412 312.075 310.055L311.54 315.258C311.273 316.628 309.936 318.271 308.6 318.271L303.521 319.092C302.185 319.366 300.848 320.462 300.848 321.557C300.848 322.652 301.917 323.748 303.521 324.022L308.6 324.843C309.936 325.117 311.54 326.486 311.54 327.856L312.342 333.059C312.609 334.428 313.679 335.797 314.748 335.797C315.817 335.797 316.886 334.702 316.886 333.059L317.688 327.308C317.955 325.939 319.292 324.569 320.628 324.296L325.44 324.022C327.311 323.474 328.38 322.379 328.38 321.283Z" fill="#F9F2E8" fill-opacity="0.75"/>
<path d="M273.317 195.967C273.317 194.871 272.247 193.776 270.644 193.502L265.565 192.68C264.229 192.68 262.892 191.311 262.625 189.942L261.823 184.739C261.556 183.369 260.486 182 259.417 182C258.348 182 257.279 183.095 257.012 184.739L256.477 189.942C256.21 191.311 254.873 192.954 253.537 192.954L248.458 193.776C247.122 194.05 245.785 195.145 245.785 196.241C245.785 197.336 246.854 198.431 248.458 198.705L253.537 199.527C254.873 199.801 256.477 201.17 256.477 202.539L257.279 207.742C257.546 209.112 258.615 210.481 259.685 210.481C260.754 210.481 261.823 209.386 261.823 207.742L262.625 201.991C262.892 200.622 264.229 199.253 265.565 198.979L270.376 198.705C272.247 198.157 273.317 197.062 273.317 195.967Z" fill="#F9F2E8" fill-opacity="0.75"/>
<path d="M69.4242 428.835C63.4194 428.835 58.5065 423.922 58.5065 417.918C58.5065 411.913 63.4194 407 69.4242 407C75.4289 407 80.3419 411.913 80.3419 417.918C80.3419 423.922 75.4289 428.835 69.4242 428.835ZM69.4242 412.186C66.1489 412.186 63.6924 414.915 63.6924 417.918C63.6924 421.193 66.4218 423.65 69.4242 423.65C72.6995 423.65 75.156 420.92 75.156 417.918C75.156 414.642 72.6995 412.186 69.4242 412.186Z" fill="#F9F2E8" fill-opacity="0.75"/>
<path d="M14.3608 474.405C8.35609 474.405 3.44312 469.492 3.44312 463.487C3.44312 457.483 8.35609 452.57 14.3608 452.57C20.3656 452.57 25.2786 457.483 25.2786 463.487C25.2786 469.492 20.3656 474.405 14.3608 474.405ZM14.3608 457.756C11.0855 457.756 8.62904 460.485 8.62904 463.487C8.62904 466.763 11.3585 469.219 14.3608 469.219C17.6362 469.219 20.0926 466.49 20.0926 463.487C20.0926 460.212 17.6362 457.756 14.3608 457.756Z" fill="#F9F2E8" fill-opacity="0.75"/>
<path d="M83.19 503.562C83.19 502.466 82.1208 501.371 80.517 501.097L75.4383 500.275C74.1019 500.275 72.7654 498.906 72.4981 497.537L71.6962 492.333C71.4289 490.964 70.3597 489.595 69.2905 489.595C68.2213 489.595 67.1521 490.69 66.8848 492.333L66.3502 497.537C66.0829 498.906 64.7464 500.549 63.41 500.549L58.3313 501.371C56.9948 501.645 55.6583 502.74 55.6583 503.835C55.6583 504.931 56.7275 506.026 58.3313 506.3L63.41 507.122C64.7464 507.395 66.3502 508.765 66.3502 510.134L67.1521 515.337C67.4194 516.707 68.4886 518.076 69.5578 518.076C70.627 518.076 71.6962 516.98 71.6962 515.337L72.4981 509.586C72.7654 508.217 74.1019 506.848 75.4383 506.574L80.2497 506.3C82.1208 505.752 83.19 504.657 83.19 503.562Z" fill="#F9F2E8" fill-opacity="0.75"/>
<path d="M28.1267 378.245C28.1267 377.15 27.0575 376.054 25.4538 375.78L20.3751 374.959C19.0386 374.959 17.7021 373.59 17.4348 372.22L16.6329 367.017C16.3656 365.648 15.2964 364.278 14.2273 364.278C13.1581 364.278 12.0889 365.374 11.8216 367.017L11.287 372.22C11.0197 373.59 9.68321 375.233 8.34672 375.233L3.26807 376.054C1.93158 376.328 0.595093 377.424 0.595093 378.519C0.595093 379.614 1.66428 380.71 3.26807 380.984L8.34672 381.805C9.68321 382.079 11.287 383.448 11.287 384.818L12.0889 390.021C12.3562 391.39 13.4254 392.759 14.4946 392.759C15.5638 392.759 16.6329 391.664 16.6329 390.021L17.4348 384.27C17.7021 382.901 19.0386 381.531 20.3751 381.258L25.1865 380.984C27.0576 380.436 28.1267 379.341 28.1267 378.245Z" fill="#F9F2E8" fill-opacity="0.75"/>
<path d="M192.019 428.835C186.014 428.835 181.101 423.922 181.101 417.918C181.101 411.913 186.014 407 192.019 407C198.024 407 202.937 411.913 202.937 417.918C202.937 423.922 198.024 428.835 192.019 428.835ZM192.019 412.186C188.744 412.186 186.287 414.915 186.287 417.918C186.287 421.193 189.017 423.65 192.019 423.65C195.294 423.65 197.751 420.92 197.751 417.918C197.751 414.642 195.294 412.186 192.019 412.186Z" fill="#F9F2E8" fill-opacity="0.75"/>
<path d="M136.956 474.405C130.951 474.405 126.038 469.492 126.038 463.487C126.038 457.483 130.951 452.57 136.956 452.57C142.961 452.57 147.874 457.483 147.874 463.487C147.874 469.492 142.961 474.405 136.956 474.405ZM136.956 457.756C133.681 457.756 131.224 460.485 131.224 463.487C131.224 466.763 133.954 469.219 136.956 469.219C140.231 469.219 142.688 466.49 142.688 463.487C142.688 460.212 140.231 457.756 136.956 457.756Z" fill="#F9F2E8" fill-opacity="0.75"/>
<path d="M205.785 503.562C205.785 502.466 204.716 501.371 203.112 501.097L198.033 500.275C196.697 500.275 195.36 498.906 195.093 497.537L194.291 492.333C194.024 490.964 192.955 489.595 191.886 489.595C190.816 489.595 189.747 490.69 189.48 492.333L188.945 497.537C188.678 498.906 187.342 500.549 186.005 500.549L180.926 501.371C179.59 501.645 178.253 502.74 178.253 503.835C178.253 504.931 179.323 506.026 180.926 506.3L186.005 507.122C187.342 507.395 188.945 508.765 188.945 510.134L189.747 515.337C190.015 516.707 191.084 518.076 192.153 518.076C193.222 518.076 194.291 516.98 194.291 515.337L195.093 509.586C195.36 508.217 196.697 506.848 198.033 506.574L202.845 506.3C204.716 505.752 205.785 504.657 205.785 503.562Z" fill="#F9F2E8" fill-opacity="0.75"/>
<path d="M150.722 378.245C150.722 377.15 149.653 376.054 148.049 375.78L142.97 374.959C141.634 374.959 140.297 373.59 140.03 372.22L139.228 367.017C138.961 365.648 137.891 364.278 136.822 364.278C135.753 364.278 134.684 365.374 134.417 367.017L133.882 372.22C133.615 373.59 132.278 375.233 130.942 375.233L125.863 376.054C124.527 376.328 123.19 377.424 123.19 378.519C123.19 379.614 124.259 380.71 125.863 380.984L130.942 381.805C132.278 382.079 133.882 383.448 133.882 384.818L134.684 390.021C134.951 391.39 136.02 392.759 137.09 392.759C138.159 392.759 139.228 391.664 139.228 390.021L140.03 384.27C140.297 382.901 141.634 381.531 142.97 381.258L147.781 380.984C149.653 380.436 150.722 379.341 150.722 378.245Z" fill="#F9F2E8" fill-opacity="0.75"/>
<path d="M314.614 428.835C308.609 428.835 303.696 423.922 303.696 417.918C303.696 411.913 308.609 407 314.614 407C320.619 407 325.532 411.913 325.532 417.918C325.532 423.922 320.619 428.835 314.614 428.835ZM314.614 412.186C311.339 412.186 308.882 414.915 308.882 417.918C308.882 421.193 311.612 423.65 314.614 423.65C317.889 423.65 320.346 420.92 320.346 417.918C320.346 414.642 317.889 412.186 314.614 412.186Z" fill="#F9F2E8" fill-opacity="0.75"/>
<path d="M259.551 474.405C253.546 474.405 248.633 469.492 248.633 463.487C248.633 457.483 253.546 452.57 259.551 452.57C265.556 452.57 270.469 457.483 270.469 463.487C270.469 469.492 265.556 474.405 259.551 474.405ZM259.551 457.756C256.275 457.756 253.819 460.485 253.819 463.487C253.819 466.763 256.548 469.219 259.551 469.219C262.826 469.219 265.283 466.49 265.283 463.487C265.283 460.212 262.826 457.756 259.551 457.756Z" fill="#F9F2E8" fill-opacity="0.75"/>
<path d="M328.38 503.562C328.38 502.466 327.311 501.371 325.707 501.097L320.628 500.275C319.292 500.275 317.955 498.906 317.688 497.537L316.886 492.333C316.619 490.964 315.55 489.595 314.48 489.595C313.411 489.595 312.342 490.69 312.075 492.333L311.54 497.537C311.273 498.906 309.936 500.549 308.6 500.549L303.521 501.371C302.185 501.645 300.848 502.74 300.848 503.835C300.848 504.931 301.917 506.026 303.521 506.3L308.6 507.122C309.936 507.395 311.54 508.765 311.54 510.134L312.342 515.337C312.609 516.707 313.679 518.076 314.748 518.076C315.817 518.076 316.886 516.98 316.886 515.337L317.688 509.586C317.955 508.217 319.292 506.848 320.628 506.574L325.44 506.3C327.311 505.752 328.38 504.657 328.38 503.562Z" fill="#F9F2E8" fill-opacity="0.75"/>
<path d="M273.317 378.245C273.317 377.15 272.247 376.054 270.644 375.78L265.565 374.959C264.229 374.959 262.892 373.59 262.625 372.22L261.823 367.017C261.556 365.648 260.486 364.278 259.417 364.278C258.348 364.278 257.279 365.374 257.012 367.017L256.477 372.22C256.21 373.59 254.873 375.233 253.537 375.233L248.458 376.054C247.122 376.328 245.785 377.424 245.785 378.519C245.785 379.614 246.854 380.71 248.458 380.984L253.537 381.805C254.873 382.079 256.477 383.448 256.477 384.818L257.279 390.021C257.546 391.39 258.615 392.759 259.685 392.759C260.754 392.759 261.823 391.664 261.823 390.021L262.625 384.27C262.892 382.901 264.229 381.531 265.565 381.258L270.376 380.984C272.247 380.436 273.317 379.341 273.317 378.245Z" fill="#F9F2E8" fill-opacity="0.75"/>
</svg>
