<svg width="328" height="519" viewBox="0 0 328 519" fill="none" xmlns="http://www.w3.org/2000/svg">
<path d="M68.8291 64.5569C62.8244 64.5569 57.9114 59.6439 57.9114 53.6392C57.9114 47.6344 62.8244 42.7214 68.8291 42.7214C74.8338 42.7214 79.7468 47.6344 79.7468 53.6392C79.7468 59.6439 74.8338 64.5569 68.8291 64.5569ZM68.8291 47.9074C65.5538 47.9074 63.0973 50.6368 63.0973 53.6392C63.0973 56.9145 65.8267 59.371 68.8291 59.371C72.1044 59.371 74.5609 56.6415 74.5609 53.6392C74.5609 50.3638 72.1044 47.9074 68.8291 47.9074Z" fill="#E4C0C3" fill-opacity="0.5"/>
<path d="M13.7656 110.127C7.76088 110.127 2.8479 105.214 2.8479 99.2088C2.8479 93.2041 7.76088 88.2911 13.7656 88.2911C19.7704 88.2911 24.6833 93.2041 24.6833 99.2088C24.6833 105.214 19.7704 110.127 13.7656 110.127ZM13.7656 93.477C10.4903 93.477 8.03382 96.2064 8.03382 99.2088C8.03382 102.484 10.7632 104.941 13.7656 104.941C17.0409 104.941 19.4974 102.211 19.4974 99.2088C19.4974 95.9335 17.0409 93.477 13.7656 93.477Z" fill="#E4C0C3" fill-opacity="0.5"/>
<path d="M82.5949 139.283C82.5949 138.188 81.5257 137.092 79.9219 136.818L74.8432 135.997C73.5068 135.997 72.1703 134.628 71.903 133.258L71.1011 128.055C70.8338 126.686 69.7646 125.316 68.6954 125.316C67.6262 125.316 66.557 126.412 66.2897 128.055L65.7551 133.258C65.4878 134.628 64.1514 136.271 62.8149 136.271L57.7362 137.092C56.3997 137.366 55.0632 138.462 55.0632 139.557C55.0632 140.652 56.1324 141.748 57.7362 142.022L62.8149 142.843C64.1514 143.117 65.7551 144.486 65.7551 145.856L66.557 151.059C66.8243 152.428 67.8935 153.797 68.9627 153.797C70.0319 153.797 71.1011 152.702 71.1011 151.059L71.903 145.308C72.1703 143.939 73.5068 142.569 74.8432 142.296L79.6546 142.022C81.5257 141.474 82.5949 140.379 82.5949 139.283Z" fill="#E4C0C3" fill-opacity="0.5"/>
<path d="M27.5316 13.9667C27.5316 12.8712 26.4625 11.7758 24.8587 11.5019L19.78 10.6804C18.4435 10.6804 17.107 9.3111 16.8397 7.94182L16.0378 2.73856C15.7705 1.36928 14.7014 0 13.6322 0C12.563 0 11.4938 1.09542 11.2265 2.73856L10.6919 7.94182C10.4246 9.3111 9.08812 10.9542 7.75163 10.9542L2.67297 11.7758C1.33649 12.0497 0 13.1451 0 14.2405C0 15.3359 1.06919 16.4314 2.67297 16.7052L7.75163 17.5268C9.08812 17.8006 10.6919 19.1699 10.6919 20.5392L11.4938 25.7425C11.7611 27.1117 12.8303 28.481 13.8995 28.481C14.9687 28.481 16.0378 27.3856 16.0378 25.7425L16.8397 19.9915C17.107 18.6222 18.4435 17.2529 19.78 16.9791L24.5914 16.7052C26.4625 16.1575 27.5316 15.0621 27.5316 13.9667Z" fill="#E4C0C3" fill-opacity="0.5"/>
<path d="M191.424 64.5569C185.419 64.5569 180.506 59.6439 180.506 53.6392C180.506 47.6344 185.419 42.7214 191.424 42.7214C197.428 42.7214 202.341 47.6344 202.341 53.6392C202.341 59.6439 197.428 64.5569 191.424 64.5569ZM191.424 47.9074C188.148 47.9074 185.692 50.6368 185.692 53.6392C185.692 56.9145 188.421 59.371 191.424 59.371C194.699 59.371 197.155 56.6415 197.155 53.6392C197.155 50.3638 194.699 47.9074 191.424 47.9074Z" fill="#E4C0C3" fill-opacity="0.5"/>
<path d="M136.361 110.127C130.356 110.127 125.443 105.214 125.443 99.2088C125.443 93.2041 130.356 88.2911 136.361 88.2911C142.365 88.2911 147.278 93.2041 147.278 99.2088C147.278 105.214 142.365 110.127 136.361 110.127ZM136.361 93.477C133.085 93.477 130.629 96.2064 130.629 99.2088C130.629 102.484 133.358 104.941 136.361 104.941C139.636 104.941 142.092 102.211 142.092 99.2088C142.092 95.9335 139.636 93.477 136.361 93.477Z" fill="#E4C0C3" fill-opacity="0.5"/>
<path d="M205.19 139.283C205.19 138.188 204.121 137.092 202.517 136.818L197.438 135.997C196.102 135.997 194.765 134.628 194.498 133.258L193.696 128.055C193.429 126.686 192.36 125.316 191.29 125.316C190.221 125.316 189.152 126.412 188.885 128.055L188.35 133.258C188.083 134.628 186.746 136.271 185.41 136.271L180.331 137.092C178.995 137.366 177.658 138.462 177.658 139.557C177.658 140.652 178.727 141.748 180.331 142.022L185.41 142.843C186.746 143.117 188.35 144.486 188.35 145.856L189.152 151.059C189.419 152.428 190.488 153.797 191.558 153.797C192.627 153.797 193.696 152.702 193.696 151.059L194.498 145.308C194.765 143.939 196.102 142.569 197.438 142.296L202.25 142.022C204.121 141.474 205.19 140.379 205.19 139.283Z" fill="#E4C0C3" fill-opacity="0.5"/>
<path d="M150.126 13.9667C150.126 12.8712 149.057 11.7758 147.453 11.5019L142.375 10.6804C141.038 10.6804 139.702 9.3111 139.434 7.94182L138.633 2.73856C138.365 1.36928 137.296 0 136.227 0C135.158 0 134.089 1.09542 133.821 2.73856L133.287 7.94182C133.019 9.3111 131.683 10.9542 130.346 10.9542L125.268 11.7758C123.931 12.0497 122.595 13.1451 122.595 14.2405C122.595 15.3359 123.664 16.4314 125.268 16.7052L130.346 17.5268C131.683 17.8006 133.287 19.1699 133.287 20.5392L134.089 25.7425C134.356 27.1117 135.425 28.481 136.494 28.481C137.563 28.481 138.633 27.3856 138.633 25.7425L139.434 19.9915C139.702 18.6222 141.038 17.2529 142.375 16.9791L147.186 16.7052C149.057 16.1575 150.126 15.0621 150.126 13.9667Z" fill="#E4C0C3" fill-opacity="0.5"/>
<path d="M314.019 64.5569C308.014 64.5569 303.101 59.6439 303.101 53.6392C303.101 47.6344 308.014 42.7214 314.019 42.7214C320.024 42.7214 324.937 47.6344 324.937 53.6392C324.937 59.6439 320.024 64.5569 314.019 64.5569ZM314.019 47.9074C310.743 47.9074 308.287 50.6368 308.287 53.6392C308.287 56.9145 311.016 59.371 314.019 59.371C317.294 59.371 319.751 56.6415 319.751 53.6392C319.751 50.3638 317.294 47.9074 314.019 47.9074Z" fill="#E4C0C3" fill-opacity="0.5"/>
<path d="M258.956 110.127C252.951 110.127 248.038 105.214 248.038 99.2088C248.038 93.2041 252.951 88.2911 258.956 88.2911C264.961 88.2911 269.874 93.2041 269.874 99.2088C269.874 105.214 264.961 110.127 258.956 110.127ZM258.956 93.477C255.68 93.477 253.224 96.2064 253.224 99.2088C253.224 102.484 255.953 104.941 258.956 104.941C262.231 104.941 264.688 102.211 264.688 99.2088C264.688 95.9335 262.231 93.477 258.956 93.477Z" fill="#E4C0C3" fill-opacity="0.5"/>
<path d="M327.785 139.283C327.785 138.188 326.715 137.092 325.112 136.818L320.033 135.997C318.696 135.997 317.36 134.628 317.093 133.258L316.291 128.055C316.023 126.686 314.954 125.316 313.885 125.316C312.816 125.316 311.747 126.412 311.479 128.055L310.945 133.258C310.678 134.628 309.341 136.271 308.005 136.271L302.926 137.092C301.589 137.366 300.253 138.462 300.253 139.557C300.253 140.652 301.322 141.748 302.926 142.022L308.005 142.843C309.341 143.117 310.945 144.486 310.945 145.856L311.747 151.059C312.014 152.428 313.083 153.797 314.152 153.797C315.222 153.797 316.291 152.702 316.291 151.059L317.093 145.308C317.36 143.939 318.696 142.569 320.033 142.296L324.844 142.022C326.715 141.474 327.785 140.379 327.785 139.283Z" fill="#E4C0C3" fill-opacity="0.5"/>
<path d="M272.722 13.9667C272.722 12.8712 271.652 11.7758 270.049 11.5019L264.97 10.6804C263.633 10.6804 262.297 9.3111 262.03 7.94182L261.228 2.73856C260.96 1.36928 259.891 0 258.822 0C257.753 0 256.684 1.09542 256.416 2.73856L255.882 7.94182C255.615 9.3111 254.278 10.9542 252.942 10.9542L247.863 11.7758C246.526 12.0497 245.19 13.1451 245.19 14.2405C245.19 15.3359 246.259 16.4314 247.863 16.7052L252.942 17.5268C254.278 17.8006 255.882 19.1699 255.882 20.5392L256.684 25.7425C256.951 27.1117 258.02 28.481 259.089 28.481C260.159 28.481 261.228 27.3856 261.228 25.7425L262.03 19.9915C262.297 18.6222 263.633 17.2529 264.97 16.9791L269.781 16.7052C271.652 16.1575 272.722 15.0621 272.722 13.9667Z" fill="#E4C0C3" fill-opacity="0.5"/>
<path d="M68.8291 246.557C62.8244 246.557 57.9114 241.644 57.9114 235.639C57.9114 229.634 62.8244 224.721 68.8291 224.721C74.8338 224.721 79.7468 229.634 79.7468 235.639C79.7468 241.644 74.8338 246.557 68.8291 246.557ZM68.8291 229.907C65.5538 229.907 63.0973 232.637 63.0973 235.639C63.0973 238.914 65.8267 241.371 68.8291 241.371C72.1044 241.371 74.5609 238.642 74.5609 235.639C74.5609 232.364 72.1044 229.907 68.8291 229.907Z" fill="#E4C0C3" fill-opacity="0.5"/>
<path d="M13.7656 292.127C7.76088 292.127 2.8479 287.214 2.8479 281.209C2.8479 275.204 7.76088 270.291 13.7656 270.291C19.7704 270.291 24.6833 275.204 24.6833 281.209C24.6833 287.214 19.7704 292.127 13.7656 292.127ZM13.7656 275.477C10.4903 275.477 8.03382 278.206 8.03382 281.209C8.03382 284.484 10.7632 286.941 13.7656 286.941C17.0409 286.941 19.4974 284.211 19.4974 281.209C19.4974 277.933 17.0409 275.477 13.7656 275.477Z" fill="#E4C0C3" fill-opacity="0.5"/>
<path d="M82.5949 321.283C82.5949 320.188 81.5257 319.092 79.9219 318.818L74.8432 317.997C73.5068 317.997 72.1703 316.628 71.903 315.258L71.1011 310.055C70.8338 308.686 69.7646 307.316 68.6954 307.316C67.6262 307.316 66.557 308.412 66.2897 310.055L65.7551 315.258C65.4878 316.628 64.1514 318.271 62.8149 318.271L57.7362 319.092C56.3997 319.366 55.0632 320.462 55.0632 321.557C55.0632 322.652 56.1324 323.748 57.7362 324.022L62.8149 324.843C64.1514 325.117 65.7551 326.486 65.7551 327.856L66.557 333.059C66.8243 334.428 67.8935 335.797 68.9627 335.797C70.0319 335.797 71.1011 334.702 71.1011 333.059L71.903 327.308C72.1703 325.939 73.5068 324.569 74.8432 324.296L79.6546 324.022C81.5257 323.474 82.5949 322.379 82.5949 321.283Z" fill="#E4C0C3" fill-opacity="0.5"/>
<path d="M27.5316 195.967C27.5316 194.871 26.4625 193.776 24.8587 193.502L19.78 192.68C18.4435 192.68 17.107 191.311 16.8397 189.942L16.0378 184.739C15.7705 183.369 14.7014 182 13.6322 182C12.563 182 11.4938 183.095 11.2265 184.739L10.6919 189.942C10.4246 191.311 9.08812 192.954 7.75163 192.954L2.67297 193.776C1.33649 194.05 0 195.145 0 196.241C0 197.336 1.06919 198.431 2.67297 198.705L7.75163 199.527C9.08812 199.801 10.6919 201.17 10.6919 202.539L11.4938 207.742C11.7611 209.112 12.8303 210.481 13.8995 210.481C14.9687 210.481 16.0378 209.386 16.0378 207.742L16.8397 201.991C17.107 200.622 18.4435 199.253 19.78 198.979L24.5914 198.705C26.4625 198.157 27.5316 197.062 27.5316 195.967Z" fill="#E4C0C3" fill-opacity="0.5"/>
<path d="M191.424 246.557C185.419 246.557 180.506 241.644 180.506 235.639C180.506 229.634 185.419 224.721 191.424 224.721C197.428 224.721 202.341 229.634 202.341 235.639C202.341 241.644 197.428 246.557 191.424 246.557ZM191.424 229.907C188.148 229.907 185.692 232.637 185.692 235.639C185.692 238.914 188.421 241.371 191.424 241.371C194.699 241.371 197.155 238.642 197.155 235.639C197.155 232.364 194.699 229.907 191.424 229.907Z" fill="#E4C0C3" fill-opacity="0.5"/>
<path d="M136.361 292.127C130.356 292.127 125.443 287.214 125.443 281.209C125.443 275.204 130.356 270.291 136.361 270.291C142.365 270.291 147.278 275.204 147.278 281.209C147.278 287.214 142.365 292.127 136.361 292.127ZM136.361 275.477C133.085 275.477 130.629 278.206 130.629 281.209C130.629 284.484 133.358 286.941 136.361 286.941C139.636 286.941 142.092 284.211 142.092 281.209C142.092 277.933 139.636 275.477 136.361 275.477Z" fill="#E4C0C3" fill-opacity="0.5"/>
<path d="M205.19 321.283C205.19 320.188 204.121 319.092 202.517 318.818L197.438 317.997C196.102 317.997 194.765 316.628 194.498 315.258L193.696 310.055C193.429 308.686 192.36 307.316 191.29 307.316C190.221 307.316 189.152 308.412 188.885 310.055L188.35 315.258C188.083 316.628 186.746 318.271 185.41 318.271L180.331 319.092C178.995 319.366 177.658 320.462 177.658 321.557C177.658 322.652 178.727 323.748 180.331 324.022L185.41 324.843C186.746 325.117 188.35 326.486 188.35 327.856L189.152 333.059C189.419 334.428 190.488 335.797 191.558 335.797C192.627 335.797 193.696 334.702 193.696 333.059L194.498 327.308C194.765 325.939 196.102 324.569 197.438 324.296L202.25 324.022C204.121 323.474 205.19 322.379 205.19 321.283Z" fill="#E4C0C3" fill-opacity="0.5"/>
<path d="M150.126 195.967C150.126 194.871 149.057 193.776 147.453 193.502L142.375 192.68C141.038 192.68 139.702 191.311 139.434 189.942L138.633 184.739C138.365 183.369 137.296 182 136.227 182C135.158 182 134.089 183.095 133.821 184.739L133.287 189.942C133.019 191.311 131.683 192.954 130.346 192.954L125.268 193.776C123.931 194.05 122.595 195.145 122.595 196.241C122.595 197.336 123.664 198.431 125.268 198.705L130.346 199.527C131.683 199.801 133.287 201.17 133.287 202.539L134.089 207.742C134.356 209.112 135.425 210.481 136.494 210.481C137.563 210.481 138.633 209.386 138.633 207.742L139.434 201.991C139.702 200.622 141.038 199.253 142.375 198.979L147.186 198.705C149.057 198.157 150.126 197.062 150.126 195.967Z" fill="#E4C0C3" fill-opacity="0.5"/>
<path d="M314.019 246.557C308.014 246.557 303.101 241.644 303.101 235.639C303.101 229.634 308.014 224.721 314.019 224.721C320.024 224.721 324.937 229.634 324.937 235.639C324.937 241.644 320.024 246.557 314.019 246.557ZM314.019 229.907C310.743 229.907 308.287 232.637 308.287 235.639C308.287 238.914 311.016 241.371 314.019 241.371C317.294 241.371 319.751 238.642 319.751 235.639C319.751 232.364 317.294 229.907 314.019 229.907Z" fill="#E4C0C3" fill-opacity="0.5"/>
<path d="M258.956 292.127C252.951 292.127 248.038 287.214 248.038 281.209C248.038 275.204 252.951 270.291 258.956 270.291C264.961 270.291 269.874 275.204 269.874 281.209C269.874 287.214 264.961 292.127 258.956 292.127ZM258.956 275.477C255.68 275.477 253.224 278.206 253.224 281.209C253.224 284.484 255.953 286.941 258.956 286.941C262.231 286.941 264.688 284.211 264.688 281.209C264.688 277.933 262.231 275.477 258.956 275.477Z" fill="#E4C0C3" fill-opacity="0.5"/>
<path d="M327.785 321.283C327.785 320.188 326.715 319.092 325.112 318.818L320.033 317.997C318.696 317.997 317.36 316.628 317.093 315.258L316.291 310.055C316.023 308.686 314.954 307.316 313.885 307.316C312.816 307.316 311.747 308.412 311.479 310.055L310.945 315.258C310.678 316.628 309.341 318.271 308.005 318.271L302.926 319.092C301.589 319.366 300.253 320.462 300.253 321.557C300.253 322.652 301.322 323.748 302.926 324.022L308.005 324.843C309.341 325.117 310.945 326.486 310.945 327.856L311.747 333.059C312.014 334.428 313.083 335.797 314.152 335.797C315.222 335.797 316.291 334.702 316.291 333.059L317.093 327.308C317.36 325.939 318.696 324.569 320.033 324.296L324.844 324.022C326.715 323.474 327.785 322.379 327.785 321.283Z" fill="#E4C0C3" fill-opacity="0.5"/>
<path d="M272.722 195.967C272.722 194.871 271.652 193.776 270.049 193.502L264.97 192.68C263.633 192.68 262.297 191.311 262.03 189.942L261.228 184.739C260.96 183.369 259.891 182 258.822 182C257.753 182 256.684 183.095 256.416 184.739L255.882 189.942C255.615 191.311 254.278 192.954 252.942 192.954L247.863 193.776C246.526 194.05 245.19 195.145 245.19 196.241C245.19 197.336 246.259 198.431 247.863 198.705L252.942 199.527C254.278 199.801 255.882 201.17 255.882 202.539L256.684 207.742C256.951 209.112 258.02 210.481 259.089 210.481C260.159 210.481 261.228 209.386 261.228 207.742L262.03 201.991C262.297 200.622 263.633 199.253 264.97 198.979L269.781 198.705C271.652 198.157 272.722 197.062 272.722 195.967Z" fill="#E4C0C3" fill-opacity="0.5"/>
<path d="M68.8291 428.835C62.8244 428.835 57.9114 423.922 57.9114 417.918C57.9114 411.913 62.8244 407 68.8291 407C74.8338 407 79.7468 411.913 79.7468 417.918C79.7468 423.922 74.8338 428.835 68.8291 428.835ZM68.8291 412.186C65.5538 412.186 63.0973 414.915 63.0973 417.918C63.0973 421.193 65.8267 423.65 68.8291 423.65C72.1044 423.65 74.5609 420.92 74.5609 417.918C74.5609 414.642 72.1044 412.186 68.8291 412.186Z" fill="#E4C0C3" fill-opacity="0.5"/>
<path d="M13.7656 474.405C7.76088 474.405 2.8479 469.492 2.8479 463.487C2.8479 457.483 7.76088 452.57 13.7656 452.57C19.7704 452.57 24.6833 457.483 24.6833 463.487C24.6833 469.492 19.7704 474.405 13.7656 474.405ZM13.7656 457.756C10.4903 457.756 8.03382 460.485 8.03382 463.487C8.03382 466.763 10.7632 469.219 13.7656 469.219C17.0409 469.219 19.4974 466.49 19.4974 463.487C19.4974 460.212 17.0409 457.756 13.7656 457.756Z" fill="#E4C0C3" fill-opacity="0.5"/>
<path d="M82.5949 503.562C82.5949 502.466 81.5257 501.371 79.9219 501.097L74.8432 500.275C73.5068 500.275 72.1703 498.906 71.903 497.537L71.1011 492.333C70.8338 490.964 69.7646 489.595 68.6954 489.595C67.6262 489.595 66.557 490.69 66.2897 492.333L65.7551 497.537C65.4878 498.906 64.1514 500.549 62.8149 500.549L57.7362 501.371C56.3997 501.645 55.0632 502.74 55.0632 503.835C55.0632 504.931 56.1324 506.026 57.7362 506.3L62.8149 507.122C64.1514 507.395 65.7551 508.765 65.7551 510.134L66.557 515.337C66.8243 516.707 67.8935 518.076 68.9627 518.076C70.0319 518.076 71.1011 516.98 71.1011 515.337L71.903 509.586C72.1703 508.217 73.5068 506.848 74.8432 506.574L79.6546 506.3C81.5257 505.752 82.5949 504.657 82.5949 503.562Z" fill="#E4C0C3" fill-opacity="0.5"/>
<path d="M27.5316 378.245C27.5316 377.15 26.4625 376.054 24.8587 375.78L19.78 374.959C18.4435 374.959 17.107 373.59 16.8397 372.22L16.0378 367.017C15.7705 365.648 14.7014 364.278 13.6322 364.278C12.563 364.278 11.4938 365.374 11.2265 367.017L10.6919 372.22C10.4246 373.59 9.08812 375.233 7.75163 375.233L2.67297 376.054C1.33649 376.328 0 377.424 0 378.519C0 379.614 1.06919 380.71 2.67297 380.984L7.75163 381.805C9.08812 382.079 10.6919 383.448 10.6919 384.818L11.4938 390.021C11.7611 391.39 12.8303 392.759 13.8995 392.759C14.9687 392.759 16.0378 391.664 16.0378 390.021L16.8397 384.27C17.107 382.901 18.4435 381.531 19.78 381.258L24.5914 380.984C26.4625 380.436 27.5316 379.341 27.5316 378.245Z" fill="#E4C0C3" fill-opacity="0.5"/>
<path d="M191.424 428.835C185.419 428.835 180.506 423.922 180.506 417.918C180.506 411.913 185.419 407 191.424 407C197.428 407 202.341 411.913 202.341 417.918C202.341 423.922 197.428 428.835 191.424 428.835ZM191.424 412.186C188.148 412.186 185.692 414.915 185.692 417.918C185.692 421.193 188.421 423.65 191.424 423.65C194.699 423.65 197.155 420.92 197.155 417.918C197.155 414.642 194.699 412.186 191.424 412.186Z" fill="#E4C0C3" fill-opacity="0.5"/>
<path d="M136.361 474.405C130.356 474.405 125.443 469.492 125.443 463.487C125.443 457.483 130.356 452.57 136.361 452.57C142.365 452.57 147.278 457.483 147.278 463.487C147.278 469.492 142.365 474.405 136.361 474.405ZM136.361 457.756C133.085 457.756 130.629 460.485 130.629 463.487C130.629 466.763 133.358 469.219 136.361 469.219C139.636 469.219 142.092 466.49 142.092 463.487C142.092 460.212 139.636 457.756 136.361 457.756Z" fill="#E4C0C3" fill-opacity="0.5"/>
<path d="M205.19 503.562C205.19 502.466 204.121 501.371 202.517 501.097L197.438 500.275C196.102 500.275 194.765 498.906 194.498 497.537L193.696 492.333C193.429 490.964 192.36 489.595 191.29 489.595C190.221 489.595 189.152 490.69 188.885 492.333L188.35 497.537C188.083 498.906 186.746 500.549 185.41 500.549L180.331 501.371C178.995 501.645 177.658 502.74 177.658 503.835C177.658 504.931 178.727 506.026 180.331 506.3L185.41 507.122C186.746 507.395 188.35 508.765 188.35 510.134L189.152 515.337C189.419 516.707 190.488 518.076 191.558 518.076C192.627 518.076 193.696 516.98 193.696 515.337L194.498 509.586C194.765 508.217 196.102 506.848 197.438 506.574L202.25 506.3C204.121 505.752 205.19 504.657 205.19 503.562Z" fill="#E4C0C3" fill-opacity="0.5"/>
<path d="M150.126 378.245C150.126 377.15 149.057 376.054 147.453 375.78L142.375 374.959C141.038 374.959 139.702 373.59 139.434 372.22L138.633 367.017C138.365 365.648 137.296 364.278 136.227 364.278C135.158 364.278 134.089 365.374 133.821 367.017L133.287 372.22C133.019 373.59 131.683 375.233 130.346 375.233L125.268 376.054C123.931 376.328 122.595 377.424 122.595 378.519C122.595 379.614 123.664 380.71 125.268 380.984L130.346 381.805C131.683 382.079 133.287 383.448 133.287 384.818L134.089 390.021C134.356 391.39 135.425 392.759 136.494 392.759C137.563 392.759 138.633 391.664 138.633 390.021L139.434 384.27C139.702 382.901 141.038 381.531 142.375 381.258L147.186 380.984C149.057 380.436 150.126 379.341 150.126 378.245Z" fill="#E4C0C3" fill-opacity="0.5"/>
<path d="M314.019 428.835C308.014 428.835 303.101 423.922 303.101 417.918C303.101 411.913 308.014 407 314.019 407C320.024 407 324.937 411.913 324.937 417.918C324.937 423.922 320.024 428.835 314.019 428.835ZM314.019 412.186C310.743 412.186 308.287 414.915 308.287 417.918C308.287 421.193 311.016 423.65 314.019 423.65C317.294 423.65 319.751 420.92 319.751 417.918C319.751 414.642 317.294 412.186 314.019 412.186Z" fill="#E4C0C3" fill-opacity="0.5"/>
<path d="M258.956 474.405C252.951 474.405 248.038 469.492 248.038 463.487C248.038 457.483 252.951 452.57 258.956 452.57C264.961 452.57 269.874 457.483 269.874 463.487C269.874 469.492 264.961 474.405 258.956 474.405ZM258.956 457.756C255.68 457.756 253.224 460.485 253.224 463.487C253.224 466.763 255.953 469.219 258.956 469.219C262.231 469.219 264.688 466.49 264.688 463.487C264.688 460.212 262.231 457.756 258.956 457.756Z" fill="#E4C0C3" fill-opacity="0.5"/>
<path d="M327.785 503.562C327.785 502.466 326.715 501.371 325.112 501.097L320.033 500.275C318.696 500.275 317.36 498.906 317.093 497.537L316.291 492.333C316.023 490.964 314.954 489.595 313.885 489.595C312.816 489.595 311.747 490.69 311.479 492.333L310.945 497.537C310.678 498.906 309.341 500.549 308.005 500.549L302.926 501.371C301.589 501.645 300.253 502.74 300.253 503.835C300.253 504.931 301.322 506.026 302.926 506.3L308.005 507.122C309.341 507.395 310.945 508.765 310.945 510.134L311.747 515.337C312.014 516.707 313.083 518.076 314.152 518.076C315.222 518.076 316.291 516.98 316.291 515.337L317.093 509.586C317.36 508.217 318.696 506.848 320.033 506.574L324.844 506.3C326.715 505.752 327.785 504.657 327.785 503.562Z" fill="#E4C0C3" fill-opacity="0.5"/>
<path d="M272.722 378.245C272.722 377.15 271.652 376.054 270.049 375.78L264.97 374.959C263.633 374.959 262.297 373.59 262.03 372.22L261.228 367.017C260.96 365.648 259.891 364.278 258.822 364.278C257.753 364.278 256.684 365.374 256.416 367.017L255.882 372.22C255.615 373.59 254.278 375.233 252.942 375.233L247.863 376.054C246.526 376.328 245.19 377.424 245.19 378.519C245.19 379.614 246.259 380.71 247.863 380.984L252.942 381.805C254.278 382.079 255.882 383.448 255.882 384.818L256.684 390.021C256.951 391.39 258.02 392.759 259.089 392.759C260.159 392.759 261.228 391.664 261.228 390.021L262.03 384.27C262.297 382.901 263.633 381.531 264.97 381.258L269.781 380.984C271.652 380.436 272.722 379.341 272.722 378.245Z" fill="#E4C0C3" fill-opacity="0.5"/>
</svg>
