<svg width="157" height="75" viewBox="0 0 157 75" fill="none" xmlns="http://www.w3.org/2000/svg">
<path d="M9.756 19.144C11.316 19.144 12.648 19.468 13.752 20.116C14.856 20.74 15.696 21.604 16.272 22.708C16.872 23.788 17.172 25.024 17.172 26.416C17.172 26.68 17.16 26.956 17.136 27.244C17.112 27.508 17.064 27.748 16.992 27.964H6.264C6.288 30.556 6.744 32.428 7.632 33.58C8.544 34.708 9.888 35.272 11.664 35.272C12.864 35.272 13.836 35.08 14.58 34.696C15.324 34.312 16.02 33.748 16.668 33.004L17.028 33.328C16.284 34.648 15.288 35.68 14.04 36.424C12.816 37.168 11.34 37.54 9.612 37.54C7.908 37.54 6.396 37.18 5.076 36.46C3.756 35.716 2.724 34.66 1.98 33.292C1.236 31.924 0.864 30.292 0.864 28.396C0.864 26.428 1.296 24.76 2.16 23.392C3.024 22 4.128 20.944 5.472 20.224C6.84 19.504 8.268 19.144 9.756 19.144ZM9.648 19.864C8.952 19.864 8.352 20.08 7.848 20.512C7.368 20.92 6.984 21.664 6.696 22.744C6.432 23.8 6.288 25.3 6.264 27.244H12.42C12.66 24.628 12.564 22.744 12.132 21.592C11.7 20.44 10.872 19.864 9.648 19.864ZM18.5116 37V36.64L18.9436 36.496C19.8076 36.208 20.2396 35.608 20.2396 34.696V15.436C20.2396 14.956 20.1436 14.596 19.9516 14.356C19.7596 14.092 19.4236 13.9 18.9436 13.78L18.4756 13.672V13.312L25.0636 11.764L25.4956 12.088L25.3516 17.128V29.44C25.3516 30.328 25.3516 31.216 25.3516 32.104C25.3756 32.968 25.3876 33.832 25.3876 34.696C25.3876 35.176 25.4836 35.572 25.6756 35.884C25.8676 36.172 26.1916 36.388 26.6476 36.532L27.1156 36.64V37H18.5116ZM28.8124 37V36.64L29.2444 36.496C30.1084 36.208 30.5404 35.608 30.5404 34.696V15.436C30.5404 14.956 30.4444 14.596 30.2524 14.356C30.0604 14.092 29.7244 13.9 29.2444 13.78L28.7764 13.672V13.312L35.3644 11.764L35.7964 12.088L35.6524 17.128V29.44C35.6524 30.328 35.6524 31.216 35.6524 32.104C35.6764 32.968 35.6884 33.832 35.6884 34.696C35.6884 35.176 35.7844 35.572 35.9764 35.884C36.1684 36.172 36.4924 36.388 36.9484 36.532L37.4164 36.64V37H28.8124ZM48.0412 19.144C49.6012 19.144 50.9332 19.468 52.0372 20.116C53.1412 20.74 53.9812 21.604 54.5572 22.708C55.1572 23.788 55.4572 25.024 55.4572 26.416C55.4572 26.68 55.4452 26.956 55.4212 27.244C55.3972 27.508 55.3492 27.748 55.2772 27.964H44.5492C44.5732 30.556 45.0292 32.428 45.9172 33.58C46.8292 34.708 48.1732 35.272 49.9492 35.272C51.1492 35.272 52.1212 35.08 52.8652 34.696C53.6092 34.312 54.3052 33.748 54.9532 33.004L55.3132 33.328C54.5692 34.648 53.5732 35.68 52.3252 36.424C51.1012 37.168 49.6252 37.54 47.8972 37.54C46.1932 37.54 44.6812 37.18 43.3612 36.46C42.0412 35.716 41.0092 34.66 40.2652 33.292C39.5212 31.924 39.1492 30.292 39.1492 28.396C39.1492 26.428 39.5812 24.76 40.4452 23.392C41.3092 22 42.4132 20.944 43.7572 20.224C45.1252 19.504 46.5532 19.144 48.0412 19.144ZM47.9332 19.864C47.2372 19.864 46.6372 20.08 46.1332 20.512C45.6532 20.92 45.2692 21.664 44.9812 22.744C44.7172 23.8 44.5732 25.3 44.5492 27.244H50.7052C50.9452 24.628 50.8492 22.744 50.4172 21.592C49.9852 20.44 49.1572 19.864 47.9332 19.864ZM61.4742 37.54C60.6102 37.54 59.8782 37.24 59.2782 36.64C58.6782 36.04 58.3782 35.32 58.3782 34.48C58.3782 33.64 58.6782 32.908 59.2782 32.284C59.8782 31.66 60.6102 31.348 61.4742 31.348C62.3382 31.348 63.0702 31.66 63.6702 32.284C64.2702 32.908 64.5702 33.64 64.5702 34.48C64.5702 35.32 64.2702 36.04 63.6702 36.64C63.0702 37.24 62.3382 37.54 61.4742 37.54Z" fill="#222222"/>
<path d="M7.56 63.54C6.024 63.54 4.824 63.156 3.96 62.388C3.12 61.62 2.7 60.396 2.7 58.716V46.404H0.216V46.044L1.08 45.9C1.824 45.732 2.46 45.492 2.988 45.18C3.54 44.868 4.08 44.448 4.608 43.92L7.56 40.644H7.92L7.812 45.684H11.844V46.404H7.776V59.364C7.776 60.204 7.956 60.84 8.316 61.272C8.7 61.704 9.18 61.92 9.756 61.92C10.26 61.92 10.704 61.8 11.088 61.56C11.472 61.296 11.856 60.948 12.24 60.516L12.6 60.876C12.12 61.692 11.46 62.34 10.62 62.82C9.78 63.3 8.76 63.54 7.56 63.54ZM22.7303 63.54C20.9063 63.54 19.3223 63.168 17.9783 62.424C16.6343 61.656 15.5903 60.576 14.8463 59.184C14.1263 57.792 13.7663 56.16 13.7663 54.288C13.7663 52.416 14.1503 50.796 14.9183 49.428C15.7103 48.06 16.7783 47.004 18.1223 46.26C19.4903 45.516 21.0263 45.144 22.7303 45.144C24.4343 45.144 25.9583 45.516 27.3023 46.26C28.6463 46.98 29.7023 48.024 30.4703 49.392C31.2623 50.76 31.6583 52.392 31.6583 54.288C31.6583 56.184 31.2863 57.828 30.5423 59.22C29.8223 60.588 28.7903 61.656 27.4463 62.424C26.1263 63.168 24.5543 63.54 22.7303 63.54ZM22.7303 62.82C23.5703 62.82 24.2423 62.58 24.7463 62.1C25.2503 61.62 25.6103 60.768 25.8263 59.544C26.0663 58.32 26.1863 56.592 26.1863 54.36C26.1863 52.104 26.0663 50.364 25.8263 49.14C25.6103 47.916 25.2503 47.064 24.7463 46.584C24.2423 46.104 23.5703 45.864 22.7303 45.864C21.8903 45.864 21.2063 46.104 20.6783 46.584C20.1743 47.064 19.8023 47.916 19.5623 49.14C19.3463 50.364 19.2383 52.104 19.2383 54.36C19.2383 56.592 19.3463 58.32 19.5623 59.544C19.8023 60.768 20.1743 61.62 20.6783 62.1C21.2063 62.58 21.8903 62.82 22.7303 62.82ZM40.4086 63.108L34.8646 47.88C34.6006 47.112 34.0726 46.572 33.2806 46.26L32.6686 46.044V45.684H41.4886V46.044L40.9486 46.188C40.0126 46.476 39.7006 47.052 40.0126 47.916L43.3606 58.104L46.3486 50.184L45.6646 48.132C45.4966 47.604 45.3166 47.208 45.1246 46.944C44.9566 46.656 44.7286 46.452 44.4406 46.332L43.8286 46.044V45.684H51.2806V46.044L50.7766 46.26C50.4166 46.404 50.2006 46.596 50.1286 46.836C50.0566 47.076 50.1046 47.436 50.2726 47.916L53.5846 57.924L57.0046 47.988C57.3406 47.076 57.1606 46.5 56.4646 46.26L55.6726 46.044V45.684H59.9926V46.044L59.1286 46.296C58.7206 46.416 58.4206 46.608 58.2286 46.872C58.0606 47.112 57.9046 47.448 57.7606 47.88L52.5766 63.108H50.7406L46.7446 51.336L42.4966 63.108H40.4086ZM61.1536 63V62.64L61.6576 62.496C62.4976 62.256 62.9176 61.668 62.9176 60.732V49.464C62.9176 48.936 62.8336 48.552 62.6656 48.312C62.4976 48.048 62.1736 47.868 61.6936 47.772L61.1536 47.628V47.268L67.3096 45.18L67.6696 45.54L67.9576 47.7C68.7976 46.956 69.7456 46.344 70.8016 45.864C71.8576 45.384 72.9016 45.144 73.9336 45.144C75.5176 45.144 76.7296 45.576 77.5696 46.44C78.4336 47.304 78.8656 48.624 78.8656 50.4V60.768C78.8656 61.704 79.3216 62.292 80.2336 62.532L80.5576 62.64V63H72.0616V62.64L72.5296 62.496C73.3696 62.232 73.7896 61.644 73.7896 60.732V49.248C73.7896 47.712 73.0216 46.944 71.4856 46.944C70.4296 46.944 69.2776 47.472 68.0296 48.528V60.768C68.0296 61.704 68.4496 62.292 69.2896 62.532L69.6136 62.64V63H61.1536ZM88.1941 63.54C87.0181 63.54 85.9621 63.396 85.0261 63.108C84.0901 62.844 83.2261 62.508 82.4341 62.1L82.4701 57.816H82.8301L84.0541 59.976C84.5821 60.936 85.1581 61.656 85.7821 62.136C86.4301 62.592 87.2461 62.82 88.2301 62.82C89.3821 62.82 90.3061 62.568 91.0021 62.064C91.7221 61.536 92.0821 60.84 92.0821 59.976C92.0821 59.184 91.8301 58.536 91.3261 58.032C90.8221 57.528 89.8861 57.072 88.5181 56.664L87.0061 56.196C85.5421 55.764 84.3901 55.092 83.5501 54.18C82.7101 53.268 82.2901 52.152 82.2901 50.832C82.2901 49.248 82.9141 47.904 84.1621 46.8C85.4101 45.696 87.1981 45.144 89.5261 45.144C90.4621 45.144 91.3381 45.252 92.1541 45.468C92.9941 45.66 93.7981 45.96 94.5661 46.368L94.3501 50.256H93.9901L92.7301 48.024C92.2741 47.232 91.8181 46.68 91.3621 46.368C90.9301 46.032 90.2701 45.864 89.3821 45.864C88.5661 45.864 87.7981 46.092 87.0781 46.548C86.3581 47.004 85.9981 47.652 85.9981 48.492C85.9981 49.308 86.2981 49.956 86.8981 50.436C87.5221 50.916 88.4341 51.36 89.6341 51.768L91.2541 52.236C92.9821 52.764 94.2181 53.496 94.9621 54.432C95.7061 55.344 96.0781 56.448 96.0781 57.744C96.0781 59.496 95.3821 60.9 93.9901 61.956C92.6221 63.012 90.6901 63.54 88.1941 63.54ZM106.682 45.144C108.242 45.144 109.574 45.468 110.678 46.116C111.782 46.74 112.622 47.604 113.198 48.708C113.798 49.788 114.098 51.024 114.098 52.416C114.098 52.68 114.086 52.956 114.062 53.244C114.038 53.508 113.99 53.748 113.918 53.964H103.19C103.214 56.556 103.67 58.428 104.558 59.58C105.47 60.708 106.814 61.272 108.59 61.272C109.79 61.272 110.762 61.08 111.506 60.696C112.25 60.312 112.946 59.748 113.594 59.004L113.954 59.328C113.21 60.648 112.214 61.68 110.966 62.424C109.742 63.168 108.266 63.54 106.538 63.54C104.834 63.54 103.322 63.18 102.002 62.46C100.682 61.716 99.6498 60.66 98.9058 59.292C98.1618 57.924 97.7898 56.292 97.7898 54.396C97.7898 52.428 98.2218 50.76 99.0858 49.392C99.9498 48 101.054 46.944 102.398 46.224C103.766 45.504 105.194 45.144 106.682 45.144ZM106.574 45.864C105.878 45.864 105.278 46.08 104.774 46.512C104.294 46.92 103.91 47.664 103.622 48.744C103.358 49.8 103.214 51.3 103.19 53.244H109.346C109.586 50.628 109.49 48.744 109.058 47.592C108.626 46.44 107.798 45.864 106.574 45.864ZM115.892 63V62.64L116.396 62.496C117.236 62.256 117.656 61.668 117.656 60.732V49.464C117.656 48.936 117.572 48.552 117.404 48.312C117.236 48.048 116.912 47.868 116.432 47.772L115.892 47.628V47.268L122.048 45.18L122.408 45.54L122.696 47.7C123.536 46.956 124.484 46.344 125.54 45.864C126.596 45.384 127.64 45.144 128.672 45.144C130.256 45.144 131.468 45.576 132.308 46.44C133.172 47.304 133.604 48.624 133.604 50.4V60.768C133.604 61.704 134.06 62.292 134.972 62.532L135.296 62.64V63H126.8V62.64L127.268 62.496C128.108 62.232 128.528 61.644 128.528 60.732V49.248C128.528 47.712 127.76 46.944 126.224 46.944C125.168 46.944 124.016 47.472 122.768 48.528V60.768C122.768 61.704 123.188 62.292 124.028 62.532L124.352 62.64V63H115.892ZM144.336 63.54C142.92 63.54 141.648 63.228 140.52 62.604C139.392 61.956 138.492 60.972 137.82 59.652C137.172 58.308 136.848 56.592 136.848 54.504C136.848 52.392 137.22 50.652 137.964 49.284C138.708 47.892 139.692 46.86 140.916 46.188C142.14 45.492 143.472 45.144 144.912 45.144C145.752 45.144 146.556 45.228 147.324 45.396C148.092 45.564 148.776 45.816 149.376 46.152V41.472C149.376 40.968 149.292 40.596 149.124 40.356C148.98 40.116 148.656 39.948 148.152 39.852L147.468 39.708V39.348L154.02 37.764L154.416 38.088L154.272 43.128V60.732C154.272 61.212 154.356 61.608 154.524 61.92C154.692 62.208 155.004 62.412 155.46 62.532L155.784 62.64V63L149.628 63.396L149.304 62.1C148.656 62.532 147.912 62.88 147.072 63.144C146.256 63.408 145.344 63.54 144.336 63.54ZM146.424 62.208C147.432 62.208 148.356 61.908 149.196 61.308V47.016C148.308 46.44 147.396 46.152 146.46 46.152C145.308 46.152 144.324 46.824 143.508 48.168C142.692 49.488 142.284 51.576 142.284 54.432C142.284 57.288 142.668 59.304 143.436 60.48C144.204 61.632 145.2 62.208 146.424 62.208Z" fill="#222222"/>
</svg>
