<svg width="86" height="101" viewBox="0 0 86 101" fill="none" xmlns="http://www.w3.org/2000/svg">
<rect width="86" height="86" rx="43" transform="matrix(1 0 0 -1 0 101)" fill="#E54546"/>
<path d="M40.512 39.288C43.632 39.288 46.296 39.936 48.504 41.232C50.712 42.48 52.392 44.208 53.544 46.416C54.744 48.576 55.344 51.048 55.344 53.832C55.344 54.36 55.32 54.912 55.272 55.488C55.224 56.016 55.128 56.496 54.984 56.928H33.528C33.576 62.112 34.488 65.856 36.264 68.16C38.088 70.416 40.776 71.544 44.328 71.544C46.728 71.544 48.672 71.16 50.16 70.392C51.648 69.624 53.04 68.496 54.336 67.008L55.056 67.656C53.568 70.296 51.576 72.36 49.08 73.848C46.632 75.336 43.68 76.08 40.224 76.08C36.816 76.08 33.792 75.36 31.152 73.92C28.512 72.432 26.448 70.32 24.96 67.584C23.472 64.848 22.728 61.584 22.728 57.792C22.728 53.856 23.592 50.52 25.32 47.784C27.048 45 29.256 42.888 31.944 41.448C34.68 40.008 37.536 39.288 40.512 39.288ZM40.296 40.728C38.904 40.728 37.704 41.16 36.696 42.024C35.736 42.84 34.968 44.328 34.392 46.488C33.864 48.6 33.576 51.6 33.528 55.488H45.84C46.32 50.256 46.128 46.488 45.264 44.184C44.4 41.88 42.744 40.728 40.296 40.728ZM67.3781 76.08C65.6501 76.08 64.1861 75.48 62.9861 74.28C61.7861 73.08 61.1861 71.64 61.1861 69.96C61.1861 68.28 61.7861 66.816 62.9861 65.568C64.1861 64.32 65.6501 63.696 67.3781 63.696C69.1061 63.696 70.5701 64.32 71.7701 65.568C72.9701 66.816 73.5701 68.28 73.5701 69.96C73.5701 71.64 72.9701 73.08 71.7701 74.28C70.5701 75.48 69.1061 76.08 67.3781 76.08Z" fill="#E4C0C3"/>
</svg>