<svg width="551" height="219" viewBox="0 0 551 219" fill="none" xmlns="http://www.w3.org/2000/svg">
<path d="M40.799 134.285L31.8692 159.027L27.7607 157.544L29.0806 153.887C27.8417 154.868 26.3846 155.465 24.7092 155.677C23.0747 155.87 21.4147 155.662 19.7292 155.053C17.8028 154.358 16.2133 153.342 14.9606 152.005C13.7189 150.639 12.9344 148.995 12.6072 147.074C12.31 145.163 12.5743 143.064 13.3999 140.777L18.6307 126.284L22.6941 127.75L17.6589 141.702C16.779 144.14 16.717 146.244 17.4731 148.013C18.2401 149.753 19.6921 151.009 21.8292 151.78C24.0264 152.573 26.0016 152.52 27.7546 151.622C29.5077 150.724 30.8513 148.98 31.7856 146.392L36.6904 132.802L40.799 134.285Z" fill="#222222"/>
<path d="M64.1269 141.249C67.1858 142.189 69.3767 143.883 70.6998 146.332C72.0324 148.75 72.1628 151.703 71.0913 155.19L66.5373 170.01L62.4078 168.741L66.7786 154.517C67.5493 152.009 67.5097 149.904 66.6598 148.204C65.8192 146.473 64.3131 145.273 62.1413 144.606C59.9389 143.929 57.9686 144.077 56.2303 145.049C54.5227 146.031 53.2646 147.837 52.4563 150.468L48.1842 164.37L44.0089 163.087L51.7353 137.943L55.9106 139.226L54.8108 142.805C56.0315 141.774 57.4535 141.123 59.0767 140.852C60.7306 140.59 62.414 140.723 64.1269 141.249Z" fill="#222222"/>
<path d="M80.3057 160.184C80.967 157.579 82.0728 155.433 83.6234 153.746C85.1817 152.029 87.0137 150.86 89.1192 150.239C91.2557 149.625 93.4716 149.61 95.7668 150.193C97.7519 150.696 99.4793 151.63 100.949 152.993C102.427 154.326 103.426 155.851 103.948 157.568L107.372 144.076L111.653 145.162L102.915 179.59L98.6342 178.504L99.8505 173.712C98.6273 175.019 97.0678 175.96 95.172 176.536C93.2841 177.08 91.2391 177.073 89.0369 176.514C86.7727 175.939 84.8518 174.857 83.2742 173.268C81.7276 171.687 80.6828 169.755 80.14 167.471C79.5971 165.188 79.6523 162.759 80.3057 160.184ZM101.881 165.71C102.37 163.787 102.407 162.013 101.994 160.39C101.58 158.766 100.801 157.413 99.6565 156.33C98.5506 155.224 97.2067 154.47 95.6249 154.069C94.043 153.667 92.5063 153.673 91.0147 154.087C89.523 154.501 88.2085 155.323 87.0709 156.553C85.9334 157.783 85.1206 159.359 84.6325 161.282C84.1366 163.236 84.0913 165.041 84.4968 166.695C84.9101 168.319 85.6697 169.684 86.7756 170.79C87.8893 171.865 89.2371 172.603 90.819 173.004C92.4008 173.406 93.9376 173.4 95.4292 172.986C96.9597 172.549 98.2937 171.716 99.4313 170.486C100.577 169.225 101.393 167.633 101.881 165.71Z" fill="#222222"/>
<path d="M141.999 173.354C141.834 174.17 141.612 175.023 141.334 175.913L120.728 171.744C120.37 174.316 120.83 176.482 122.106 178.242C123.42 179.977 125.206 181.073 127.465 181.53C129.315 181.905 130.938 181.792 132.332 181.193C133.764 180.568 134.877 179.586 135.671 178.244L140.282 179.177C139.09 181.516 137.301 183.259 134.914 184.409C132.533 185.527 129.805 185.775 126.732 185.153C124.285 184.658 122.201 183.665 120.478 182.173C118.787 180.689 117.596 178.831 116.904 176.602C116.219 174.341 116.146 171.878 116.686 169.212C117.225 166.546 118.231 164.317 119.704 162.525C121.176 160.734 122.977 159.499 125.106 158.819C127.273 158.115 129.61 158.017 132.12 158.524C134.566 159.019 136.622 159.991 138.288 161.438C139.954 162.885 141.099 164.651 141.722 166.736C142.382 168.796 142.475 171.002 141.999 173.354ZM137.757 171.566C138.087 169.935 138.009 168.466 137.522 167.159C137.042 165.822 136.235 164.728 135.101 163.878C134.005 163.003 132.704 162.414 131.198 162.109C129.034 161.671 127.044 161.987 125.228 163.056C123.443 164.131 122.194 165.87 121.479 168.272L137.757 171.566Z" fill="#222222"/>
<path d="M157.978 168.033C158.977 166.672 160.238 165.693 161.761 165.097C163.316 164.506 165.104 164.375 167.125 164.703L166.403 169.156L165.266 168.972C160.433 168.188 157.591 170.418 156.741 175.661L154.451 189.781L150.139 189.082L154.35 163.117L158.662 163.816L157.978 168.033Z" fill="#222222"/>
<path d="M190.552 181.611C190.818 178.904 191.59 176.601 192.87 174.7C194.153 172.769 195.804 171.339 197.824 170.412C199.876 169.488 202.144 169.148 204.629 169.391C207.845 169.707 210.412 170.747 212.329 172.51C214.278 174.277 215.45 176.579 215.847 179.415L211.166 178.956C210.876 177.319 210.124 175.976 208.909 174.924C207.725 173.875 206.178 173.257 204.268 173.07C201.784 172.826 199.693 173.489 197.995 175.059C196.301 176.597 195.301 178.926 194.995 182.047C194.685 185.2 195.21 187.711 196.57 189.581C197.93 191.451 199.852 192.507 202.336 192.751C204.247 192.939 205.883 192.649 207.245 191.882C208.606 191.116 209.607 189.928 210.247 188.319L214.929 188.778C213.965 191.384 212.353 193.397 210.092 194.814C207.834 196.201 205.128 196.739 201.975 196.43C199.491 196.186 197.333 195.411 195.499 194.106C193.698 192.804 192.356 191.081 191.473 188.936C190.59 186.792 190.283 184.35 190.552 181.611Z" fill="#222222"/>
<path d="M237.306 199.061C234.846 198.937 232.636 198.265 230.679 197.045C228.754 195.827 227.268 194.166 226.22 192.063C225.206 189.929 224.767 187.504 224.904 184.788C225.039 182.103 225.733 179.767 226.986 177.78C228.273 175.762 229.951 174.26 232.019 173.275C234.089 172.257 236.37 171.811 238.863 171.937C241.356 172.062 243.581 172.735 245.538 173.954C247.497 175.142 249 176.788 250.047 178.891C251.127 180.996 251.599 183.407 251.462 186.123C251.325 188.84 250.598 191.206 249.279 193.223C247.993 195.209 246.3 196.709 244.198 197.725C242.097 198.741 239.799 199.186 237.306 199.061ZM237.499 195.226C239.065 195.304 240.554 195.011 241.965 194.345C243.376 193.679 244.534 192.632 245.439 191.203C246.376 189.777 246.898 188.008 247.004 185.899C247.11 183.79 246.784 181.979 246.027 180.467C245.27 178.955 244.238 177.814 242.931 177.043C241.626 176.241 240.19 175.8 238.624 175.721C237.026 175.641 235.538 175.935 234.158 176.602C232.813 177.239 231.703 178.273 230.83 179.703C229.958 181.133 229.468 182.903 229.362 185.012C229.254 187.153 229.547 188.978 230.24 190.487C230.965 191.997 231.964 193.153 233.238 193.954C234.513 194.723 235.933 195.147 237.499 195.226Z" fill="#222222"/>
<path d="M274.835 172.808C278.035 172.814 280.625 173.795 282.605 175.751C284.585 177.675 285.572 180.461 285.564 184.109L285.533 199.613L281.213 199.605L281.243 184.725C281.248 182.101 280.596 180.099 279.287 178.721C277.978 177.31 276.188 176.602 273.916 176.598C271.612 176.593 269.77 177.31 268.391 178.747C267.044 180.184 266.368 182.279 266.363 185.031L266.333 199.575L261.965 199.566L262.018 173.262L266.386 173.271L266.379 177.015C267.245 175.672 268.415 174.635 269.889 173.902C271.394 173.169 273.043 172.804 274.835 172.808Z" fill="#222222"/>
<path d="M307.403 199.334C305.389 199.421 303.568 199.162 301.94 198.56C300.312 197.925 299.008 197.02 298.029 195.845C297.048 194.638 296.475 193.237 296.311 191.642L300.819 191.449C301.003 192.754 301.656 193.799 302.779 194.584C303.933 195.367 305.406 195.72 307.196 195.644C308.859 195.572 310.154 195.148 311.081 194.372C312.009 193.595 312.449 192.648 312.401 191.529C312.351 190.378 311.803 189.552 310.757 189.053C309.709 188.521 308.103 188.03 305.937 187.578C303.965 187.15 302.345 186.707 301.076 186.249C299.838 185.758 298.749 185.02 297.81 184.035C296.902 183.017 296.411 181.661 296.338 179.967C296.281 178.624 296.628 177.376 297.379 176.223C298.13 175.069 299.227 174.141 300.671 173.439C302.112 172.704 303.776 172.297 305.663 172.216C308.572 172.091 310.953 172.725 312.807 174.119C314.66 175.513 315.706 177.486 315.943 180.038L311.579 180.226C311.425 178.855 310.818 177.776 309.759 176.989C308.732 176.2 307.372 175.842 305.677 175.915C304.111 175.982 302.878 176.371 301.98 177.082C301.082 177.793 300.656 178.692 300.702 179.779C300.739 180.643 301.042 181.35 301.61 181.902C302.209 182.421 302.932 182.839 303.778 183.155C304.655 183.437 305.853 183.754 307.374 184.105C309.282 184.536 310.839 184.982 312.044 185.442C313.247 185.871 314.286 186.563 315.159 187.519C316.065 188.473 316.568 189.748 316.669 191.346C316.731 192.784 316.386 194.096 315.637 195.281C314.887 196.467 313.791 197.427 312.349 198.161C310.938 198.862 309.289 199.253 307.403 199.334Z" fill="#222222"/>
<path d="M332.649 174.617L333.874 190.073C333.975 191.349 334.318 192.236 334.903 192.736C335.486 193.203 336.447 193.384 337.787 193.278L340.993 193.024L341.285 196.708L337.361 197.019C334.937 197.211 333.074 196.797 331.774 195.776C330.473 194.756 329.722 192.97 329.519 190.418L328.295 174.962L324.898 175.231L324.613 171.642L328.011 171.373L327.488 164.77L331.842 164.425L332.365 171.028L339.208 170.486L339.492 174.075L332.649 174.617Z" fill="#222222"/>
<path d="M354.049 173.279C354.647 171.699 355.6 170.419 356.909 169.438C358.249 168.453 359.937 167.848 361.972 167.624L362.467 172.108L361.322 172.235C356.455 172.772 354.313 175.68 354.896 180.96L356.464 195.178L352.123 195.657L349.238 169.511L353.58 169.032L354.049 173.279Z" fill="#222222"/>
<path d="M394.228 163.522L398.143 189.533L393.824 190.183L393.245 186.339C392.622 187.792 391.624 189.01 390.251 189.993C388.905 190.94 387.346 191.547 385.574 191.813C383.549 192.118 381.668 191.981 379.93 191.401C378.188 190.789 376.715 189.717 375.514 188.182C374.344 186.643 373.578 184.671 373.216 182.267L370.922 167.03L375.194 166.387L377.402 181.054C377.788 183.617 378.734 185.497 380.241 186.694C381.743 187.86 383.618 188.273 385.864 187.935C388.174 187.587 389.887 186.601 391.001 184.977C392.116 183.353 392.468 181.181 392.059 178.459L389.908 164.172L394.228 163.522Z" fill="#222222"/>
<path d="M406.566 174.697C406.033 172.03 406.103 169.601 406.776 167.411C407.442 165.19 408.607 163.342 410.271 161.868C411.966 160.388 414.037 159.403 416.485 158.915C419.654 158.282 422.412 158.531 424.759 159.662C427.137 160.786 428.928 162.648 430.132 165.247L425.519 166.167C424.766 164.686 423.656 163.618 422.188 162.965C420.751 162.305 419.091 162.164 417.208 162.539C414.76 163.028 412.952 164.27 411.784 166.265C410.61 168.229 410.33 170.748 410.943 173.824C411.563 176.93 412.795 179.181 414.64 180.575C416.484 181.969 418.63 182.421 421.078 181.933C422.961 181.557 424.443 180.805 425.522 179.676C426.602 178.546 427.215 177.119 427.36 175.393L431.973 174.473C431.809 177.246 430.851 179.64 429.099 181.654C427.341 183.636 424.908 184.938 421.802 185.557C419.354 186.046 417.063 185.932 414.93 185.216C412.828 184.493 411.043 183.234 409.575 181.439C408.107 179.643 407.104 177.396 406.566 174.697Z" fill="#222222"/>
<path d="M444.974 156.781L448.596 171.856C448.895 173.101 449.373 173.924 450.029 174.326C450.677 174.697 451.655 174.725 452.962 174.411L456.089 173.66L456.953 177.253L453.125 178.173C450.761 178.741 448.856 178.623 447.412 177.818C445.968 177.013 444.947 175.366 444.349 172.877L440.727 157.802L437.413 158.598L436.572 155.098L439.886 154.302L438.338 147.861L442.585 146.84L444.133 153.281L450.807 151.677L451.648 155.178L444.974 156.781Z" fill="#222222"/>
<path d="M461.72 144.397C460.916 144.613 460.162 144.518 459.456 144.111C458.75 143.704 458.289 143.099 458.073 142.296C457.857 141.492 457.953 140.738 458.359 140.032C458.766 139.326 459.371 138.865 460.175 138.649C460.947 138.442 461.671 138.545 462.346 138.96C463.052 139.367 463.513 139.972 463.729 140.776C463.945 141.579 463.849 142.334 463.442 143.04C463.067 143.737 462.492 144.19 461.72 144.397ZM464.869 147.974L471.697 173.377L467.479 174.511L460.65 149.108L464.869 147.974Z" fill="#222222"/>
<path d="M495.066 167.065C492.711 167.788 490.405 167.911 488.149 167.433C485.924 166.945 483.96 165.891 482.257 164.272C480.575 162.613 479.335 160.483 478.536 157.883C477.747 155.314 477.602 152.881 478.101 150.585C478.622 148.249 479.686 146.265 481.294 144.633C482.892 142.97 484.884 141.772 487.27 141.039C489.656 140.306 491.977 140.178 494.233 140.657C496.479 141.104 498.454 142.138 500.157 143.757C501.89 145.367 503.156 147.472 503.955 150.072C504.754 152.672 504.878 155.145 504.327 157.49C503.796 159.796 502.717 161.785 501.088 163.457C499.46 165.129 497.452 166.332 495.066 167.065ZM493.938 163.394C495.437 162.934 496.736 162.149 497.835 161.042C498.934 159.934 499.665 158.554 500.028 156.903C500.422 155.242 500.308 153.402 499.688 151.383C499.068 149.365 498.144 147.774 496.916 146.611C495.688 145.448 494.329 144.728 492.837 144.45C491.336 144.141 489.837 144.217 488.338 144.678C486.808 145.148 485.509 145.932 484.441 147.03C483.393 148.088 482.704 149.439 482.371 151.081C482.039 152.723 482.183 154.553 482.803 156.572C483.433 158.621 484.331 160.237 485.498 161.418C486.695 162.59 488.028 163.335 489.499 163.654C490.96 163.941 492.44 163.855 493.938 163.394Z" fill="#222222"/>
<path d="M521.379 129.578C524.389 128.491 527.158 128.529 529.687 129.692C532.205 130.824 534.083 133.106 535.321 136.538L540.585 151.121L536.521 152.588L531.47 138.591C530.579 136.123 529.283 134.465 527.582 133.616C525.87 132.737 523.945 132.683 521.808 133.454C519.641 134.236 518.155 135.538 517.349 137.36C516.574 139.171 516.653 141.37 517.588 143.959L522.525 157.639L518.416 159.122L509.487 134.38L513.595 132.897L514.866 136.419C515.223 134.861 515.968 133.487 517.103 132.295C518.268 131.092 519.693 130.186 521.379 129.578Z" fill="#222222"/>
<path d="M188.862 67.152C184.723 67.152 180.968 66.32 177.598 64.656C174.27 62.9493 171.624 60.432 169.661 57.104C167.699 53.776 166.718 49.7013 166.718 44.88C166.718 41.2107 167.315 37.9893 168.51 35.216C169.704 32.4427 171.326 30.1173 173.374 28.24C175.464 26.3627 177.854 24.9547 180.542 24.016C183.272 23.0773 186.152 22.608 189.182 22.608C191.614 22.608 193.854 22.8853 195.902 23.44C197.95 23.9947 199.87 24.7627 201.662 25.744L201.918 33.616H201.278L198.078 28.496C197.651 27.6853 197.182 26.96 196.67 26.32C196.158 25.6373 195.518 25.1253 194.75 24.784C194.11 24.4853 193.47 24.272 192.83 24.144C192.232 23.9733 191.464 23.888 190.526 23.888C188.051 23.888 185.79 24.5493 183.742 25.872C181.736 27.1947 180.115 29.392 178.878 32.464C177.683 35.4933 177.086 39.6533 177.086 44.944C177.086 50.192 177.662 54.352 178.814 57.424C179.966 60.4533 181.523 62.6293 183.486 63.952C185.491 65.232 187.731 65.872 190.206 65.872C191.571 65.872 192.659 65.7867 193.47 65.616C194.28 65.4027 195.091 65.104 195.902 64.72C196.712 64.3787 197.331 63.888 197.757 63.248C198.184 62.5653 198.568 61.84 198.91 61.072L201.726 54.8H202.366L202.174 63.952C200.382 64.8907 198.376 65.6587 196.158 66.256C193.939 66.8533 191.507 67.152 188.862 67.152ZM221.472 66.96C218.229 66.96 215.413 66.2987 213.024 64.976C210.635 63.6107 208.779 61.6907 207.456 59.216C206.176 56.7413 205.536 53.84 205.536 50.512C205.536 47.184 206.219 44.304 207.584 41.872C208.992 39.44 210.891 37.5627 213.28 36.24C215.712 34.9173 218.443 34.256 221.472 34.256C224.501 34.256 227.211 34.9173 229.6 36.24C231.989 37.52 233.867 39.376 235.232 41.808C236.64 44.24 237.344 47.1413 237.344 50.512C237.344 53.8827 236.683 56.8053 235.36 59.28C234.08 61.712 232.245 63.6107 229.856 64.976C227.509 66.2987 224.715 66.96 221.472 66.96ZM221.472 65.68C222.965 65.68 224.16 65.2533 225.056 64.4C225.952 63.5467 226.592 62.032 226.976 59.856C227.403 57.68 227.616 54.608 227.616 50.64C227.616 46.6293 227.403 43.536 226.976 41.36C226.592 39.184 225.952 37.6693 225.056 36.816C224.16 35.9627 222.965 35.536 221.472 35.536C219.979 35.536 218.763 35.9627 217.824 36.816C216.928 37.6693 216.267 39.184 215.84 41.36C215.456 43.536 215.264 46.6293 215.264 50.64C215.264 54.608 215.456 57.68 215.84 59.856C216.267 62.032 216.928 63.5467 217.824 64.4C218.763 65.2533 219.979 65.68 221.472 65.68ZM240.155 66V65.36L241.051 65.104C241.862 64.8907 242.416 64.528 242.715 64.016C243.056 63.504 243.248 62.8213 243.291 61.968V41.936C243.291 40.9973 243.142 40.3147 242.843 39.888C242.544 39.4187 241.968 39.0987 241.115 38.928L240.155 38.672V38.032L251.099 34.32L251.739 34.96L252.251 39.312C253.659 37.904 255.259 36.7093 257.051 35.728C258.886 34.7467 260.784 34.256 262.747 34.256C264.795 34.256 266.438 34.6827 267.675 35.536C268.912 36.3467 269.851 37.6267 270.491 39.376C272.155 37.7973 273.947 36.56 275.867 35.664C277.83 34.7253 279.728 34.256 281.563 34.256C284.592 34.256 286.811 34.9813 288.219 36.432C289.67 37.8827 290.395 40.1653 290.395 43.28V62.032C290.395 63.696 291.163 64.7413 292.699 65.168L293.403 65.36V66H278.619V65.36L279.259 65.168C280.07 64.912 280.624 64.528 280.923 64.016C281.264 63.504 281.435 62.8213 281.435 61.968V42.384C281.435 40.592 281.115 39.376 280.475 38.736C279.835 38.0533 278.811 37.712 277.403 37.712C276.294 37.712 275.206 37.968 274.139 38.48C273.115 38.9493 272.027 39.6747 270.875 40.656C271.088 41.3387 271.216 42.0853 271.259 42.896C271.344 43.7067 271.387 44.56 271.387 45.456V62.032C271.43 63.696 272.198 64.7413 273.691 65.168L274.267 65.36V66H259.419V65.36L260.315 65.104C261.126 64.848 261.68 64.4853 261.979 64.016C262.32 63.504 262.491 62.8213 262.491 61.968V42.448C262.491 40.7413 262.171 39.5253 261.531 38.8C260.934 38.0747 259.888 37.712 258.395 37.712C257.414 37.712 256.432 37.968 255.451 38.48C254.47 38.9493 253.446 39.6533 252.379 40.592V62.032C252.379 63.696 253.126 64.7413 254.619 65.168L255.195 65.36V66H240.155ZM303.585 30.928C302.134 30.928 300.897 30.48 299.873 29.584C298.892 28.6453 298.401 27.472 298.401 26.064C298.401 24.6133 298.892 23.44 299.873 22.544C300.897 21.648 302.134 21.2 303.585 21.2C305.036 21.2 306.252 21.648 307.233 22.544C308.214 23.44 308.705 24.6133 308.705 26.064C308.705 27.472 308.214 28.6453 307.233 29.584C306.252 30.48 305.036 30.928 303.585 30.928ZM296.033 66V65.36L296.929 65.104C297.782 64.848 298.358 64.464 298.657 63.952C298.998 63.44 299.169 62.7573 299.169 61.904V41.872C299.169 40.976 298.998 40.3147 298.657 39.888C298.358 39.4187 297.782 39.0987 296.929 38.928L296.033 38.736V38.096L307.745 34.32L308.385 34.96L308.193 44.048V61.968C308.193 62.8213 308.342 63.504 308.641 64.016C308.982 64.528 309.558 64.912 310.369 65.168L311.009 65.36V66H296.033ZM313.843 66V65.36L314.739 65.104C316.232 64.6773 316.979 63.632 316.979 61.968V41.936C316.979 40.9973 316.829 40.3147 316.531 39.888C316.232 39.4187 315.656 39.0987 314.803 38.928L313.843 38.672V38.032L324.787 34.32L325.427 34.96L325.939 38.8C327.432 37.4773 329.117 36.3893 330.995 35.536C332.872 34.6827 334.728 34.256 336.563 34.256C339.379 34.256 341.533 35.024 343.027 36.56C344.563 38.096 345.331 40.4427 345.331 43.6V62.032C345.331 63.696 346.141 64.7413 347.763 65.168L348.339 65.36V66H333.235V65.36L334.067 65.104C335.56 64.6347 336.307 63.5893 336.307 61.968V41.552C336.307 38.8213 334.941 37.456 332.211 37.456C330.333 37.456 328.285 38.3947 326.067 40.272V62.032C326.067 63.696 326.813 64.7413 328.307 65.168L328.883 65.36V66H313.843ZM364.795 54.928C361.851 54.928 359.355 54.4373 357.307 53.456V55.632C357.307 56.9547 357.968 57.744 359.291 58L371.323 60.24C373.328 60.624 375.141 61.136 376.763 61.776C378.384 62.3733 379.685 63.248 380.667 64.4C381.648 65.5093 382.139 67.0453 382.139 69.008C382.139 71.0987 381.456 73.0187 380.091 74.768C378.725 76.56 376.699 77.9893 374.011 79.056C371.365 80.1653 368.059 80.72 364.091 80.72C360.677 80.72 357.968 80.3573 355.963 79.632C353.957 78.9493 352.528 78.0533 351.674 76.944C350.864 75.8347 350.459 74.6613 350.459 73.424C350.459 71.888 350.971 70.3307 351.995 68.752C353.061 67.216 354.363 65.9787 355.899 65.04C354.576 64.528 353.616 63.8667 353.019 63.056C352.421 62.2453 352.123 61.3707 352.123 60.432C352.123 59.5787 352.336 58.7893 352.763 58.064C353.232 57.296 353.787 56.528 354.427 55.76L356.539 53.072C353.424 51.28 351.867 48.464 351.867 44.624C351.867 41.552 352.955 39.056 355.131 37.136C357.349 35.216 360.592 34.256 364.859 34.256C367.035 34.256 368.933 34.512 370.555 35.024C372.219 35.536 373.584 36.2613 374.651 37.2C376.016 36.9867 377.296 36.6453 378.491 36.176C379.728 35.664 380.837 34.9813 381.819 34.128L382.715 34.768V38.032H375.483C377.019 39.7387 377.787 41.936 377.787 44.624C377.787 47.6107 376.677 50.0853 374.459 52.048C372.283 53.968 369.061 54.928 364.795 54.928ZM364.731 53.648C366.437 53.648 367.675 52.944 368.443 51.536C369.253 50.128 369.659 47.7813 369.659 44.496C369.659 41.2107 369.253 38.9067 368.443 37.584C367.675 36.2187 366.48 35.536 364.859 35.536C363.28 35.536 362.085 36.24 361.275 37.648C360.464 39.0133 360.059 41.3387 360.059 44.624C360.059 47.9093 360.421 50.2347 361.147 51.6C361.915 52.9653 363.109 53.648 364.731 53.648ZM355.195 71.376C355.195 73.8933 355.963 75.792 357.499 77.072C359.077 78.352 361.552 78.992 364.923 78.992C368.464 78.992 371.131 78.416 372.923 77.264C374.715 76.112 375.611 74.4907 375.611 72.4C375.611 71.2053 375.163 70.2453 374.267 69.52C373.413 68.7947 371.941 68.24 369.851 67.856L358.267 65.68C357.925 65.5947 357.584 65.5093 357.243 65.424C356.645 66.2773 356.155 67.2373 355.771 68.304C355.387 69.4133 355.195 70.4373 355.195 71.376Z" fill="#222222"/>
<path d="M190.637 123.152C188.29 123.152 185.901 122.853 183.469 122.256C181.037 121.701 179.01 120.955 177.389 120.016L177.709 111.312H178.349L180.333 115.472C180.93 116.667 181.57 117.733 182.253 118.672C182.935 119.568 183.874 120.272 185.069 120.784C185.922 121.211 186.733 121.509 187.501 121.68C188.311 121.808 189.207 121.872 190.189 121.872C192.791 121.872 194.839 121.168 196.333 119.76C197.869 118.352 198.637 116.539 198.637 114.32C198.637 112.229 198.125 110.608 197.101 109.456C196.077 108.261 194.434 107.109 192.173 106L189.549 104.848C185.879 103.227 182.999 101.371 180.909 99.28C178.861 97.1467 177.837 94.3307 177.837 90.832C177.837 88.3147 178.477 86.1387 179.757 84.304C181.079 82.4693 182.893 81.0613 185.197 80.08C187.543 79.0987 190.274 78.608 193.389 78.608C195.65 78.608 197.783 78.9067 199.789 79.504C201.837 80.1013 203.607 80.912 205.101 81.936L204.717 89.616H204.077L201.453 84.816C200.727 83.3227 200.002 82.2773 199.277 81.68C198.551 81.04 197.719 80.592 196.781 80.336C196.226 80.1653 195.714 80.0587 195.245 80.016C194.775 79.9307 194.178 79.888 193.453 79.888C191.277 79.888 189.442 80.528 187.949 81.808C186.455 83.0453 185.709 84.7307 185.709 86.864C185.709 89.04 186.285 90.7893 187.437 92.112C188.589 93.392 190.274 94.544 192.493 95.568L195.437 96.848C199.533 98.64 202.477 100.56 204.269 102.608C206.061 104.613 206.957 107.216 206.957 110.416C206.957 114.171 205.527 117.243 202.669 119.632C199.853 121.979 195.842 123.152 190.637 123.152ZM226.316 122.96C223.073 122.96 220.257 122.299 217.868 120.976C215.478 119.611 213.622 117.691 212.3 115.216C211.02 112.741 210.38 109.84 210.38 106.512C210.38 103.184 211.062 100.304 212.428 97.872C213.836 95.44 215.734 93.5627 218.124 92.24C220.556 90.9173 223.286 90.256 226.316 90.256C229.345 90.256 232.054 90.9173 234.444 92.24C236.833 93.52 238.71 95.376 240.076 97.808C241.484 100.24 242.188 103.141 242.188 106.512C242.188 109.883 241.526 112.805 240.204 115.28C238.924 117.712 237.089 119.611 234.7 120.976C232.353 122.299 229.558 122.96 226.316 122.96ZM226.316 121.68C227.809 121.68 229.004 121.253 229.9 120.4C230.796 119.547 231.436 118.032 231.82 115.856C232.246 113.68 232.46 110.608 232.46 106.64C232.46 102.629 232.246 99.536 231.82 97.36C231.436 95.184 230.796 93.6693 229.9 92.816C229.004 91.9627 227.809 91.536 226.316 91.536C224.822 91.536 223.606 91.9627 222.668 92.816C221.772 93.6693 221.11 95.184 220.684 97.36C220.3 99.536 220.108 102.629 220.108 106.64C220.108 110.608 220.3 113.68 220.684 115.856C221.11 118.032 221.772 119.547 222.668 120.4C223.606 121.253 224.822 121.68 226.316 121.68ZM261.566 122.96C258.323 122.96 255.507 122.299 253.118 120.976C250.728 119.611 248.872 117.691 247.55 115.216C246.27 112.741 245.63 109.84 245.63 106.512C245.63 103.184 246.312 100.304 247.678 97.872C249.086 95.44 250.984 93.5627 253.374 92.24C255.806 90.9173 258.536 90.256 261.566 90.256C264.595 90.256 267.304 90.9173 269.694 92.24C272.083 93.52 273.96 95.376 275.326 97.808C276.734 100.24 277.438 103.141 277.438 106.512C277.438 109.883 276.776 112.805 275.454 115.28C274.174 117.712 272.339 119.611 269.95 120.976C267.603 122.299 264.808 122.96 261.566 122.96ZM261.566 121.68C263.059 121.68 264.254 121.253 265.15 120.4C266.046 119.547 266.686 118.032 267.07 115.856C267.496 113.68 267.71 110.608 267.71 106.64C267.71 102.629 267.496 99.536 267.07 97.36C266.686 95.184 266.046 93.6693 265.15 92.816C264.254 91.9627 263.059 91.536 261.566 91.536C260.072 91.536 258.856 91.9627 257.918 92.816C257.022 93.6693 256.36 95.184 255.934 97.36C255.55 99.536 255.358 102.629 255.358 106.64C255.358 110.608 255.55 113.68 255.934 115.856C256.36 118.032 257.022 119.547 257.918 120.4C258.856 121.253 260.072 121.68 261.566 121.68ZM280.249 122V121.36L281.145 121.104C282.638 120.677 283.385 119.632 283.385 117.968V97.936C283.385 96.9973 283.235 96.3147 282.937 95.888C282.638 95.4187 282.062 95.0987 281.209 94.928L280.249 94.672V94.032L291.193 90.32L291.833 90.96L292.345 94.8C293.838 93.4773 295.523 92.3893 297.401 91.536C299.278 90.6827 301.134 90.256 302.969 90.256C305.785 90.256 307.939 91.024 309.433 92.56C310.969 94.096 311.737 96.4427 311.737 99.6V118.032C311.737 119.696 312.547 120.741 314.169 121.168L314.745 121.36V122H299.641V121.36L300.473 121.104C301.966 120.635 302.713 119.589 302.713 117.968V97.552C302.713 94.8213 301.347 93.456 298.617 93.456C296.739 93.456 294.691 94.3947 292.473 96.272V118.032C292.473 119.696 293.219 120.741 294.713 121.168L295.289 121.36V122H280.249ZM325.569 122.96C324.033 122.96 322.731 122.427 321.665 121.36C320.598 120.293 320.065 119.013 320.065 117.52C320.065 116.027 320.598 114.725 321.665 113.616C322.731 112.507 324.033 111.952 325.569 111.952C327.105 111.952 328.406 112.507 329.473 113.616C330.539 114.725 331.073 116.027 331.073 117.52C331.073 119.013 330.539 120.293 329.473 121.36C328.406 122.427 327.105 122.96 325.569 122.96ZM344.756 122.96C343.22 122.96 341.919 122.427 340.852 121.36C339.786 120.293 339.252 119.013 339.252 117.52C339.252 116.027 339.786 114.725 340.852 113.616C341.919 112.507 343.22 111.952 344.756 111.952C346.292 111.952 347.594 112.507 348.66 113.616C349.727 114.725 350.26 116.027 350.26 117.52C350.26 119.013 349.727 120.293 348.66 121.36C347.594 122.427 346.292 122.96 344.756 122.96ZM363.944 122.96C362.408 122.96 361.106 122.427 360.04 121.36C358.973 120.293 358.44 119.013 358.44 117.52C358.44 116.027 358.973 114.725 360.04 113.616C361.106 112.507 362.408 111.952 363.944 111.952C365.48 111.952 366.781 112.507 367.848 113.616C368.914 114.725 369.448 116.027 369.448 117.52C369.448 119.013 368.914 120.293 367.848 121.36C366.781 122.427 365.48 122.96 363.944 122.96Z" fill="#222222"/>
</svg>
